<svg id="Layer_1" data-name="Layer 1" xmlns="http://www.w3.org/2000/svg" xmlns:xlink="http://www.w3.org/1999/xlink" viewBox="0 0 5173.99 6435.42"><defs><style>.cls-1,.cls-2{fill:none;}.cls-1,.cls-3,.cls-5{clip-rule:evenodd;}.cls-25,.cls-3,.cls-4{fill:#00a651;}.cls-39,.cls-5,.cls-6{fill:#fff;}.cls-7{clip-path:url(#clip-path);}.cls-8{clip-path:url(#clip-path-2);}.cls-9{clip-path:url(#clip-path-3);}.cls-10{clip-path:url(#clip-path-5);}.cls-11{clip-path:url(#clip-path-7);}.cls-12{clip-path:url(#clip-path-9);}.cls-13{clip-path:url(#clip-path-10);}.cls-14{clip-path:url(#clip-path-11);}.cls-15{clip-path:url(#clip-path-13);}.cls-16{clip-path:url(#clip-path-15);}.cls-17{clip-path:url(#clip-path-17);}.cls-18{clip-path:url(#clip-path-19);}.cls-19{clip-path:url(#clip-path-21);}.cls-20{clip-path:url(#clip-path-23);}.cls-21{clip-path:url(#clip-path-25);}.cls-22{clip-path:url(#clip-path-27);}.cls-23{clip-path:url(#clip-path-29);}.cls-24{clip-path:url(#clip-path-31);}.cls-25,.cls-39{fill-rule:evenodd;}.cls-26{clip-path:url(#clip-path-33);}.cls-27{clip-path:url(#clip-path-34);}.cls-28{clip-path:url(#clip-path-35);}.cls-29{clip-path:url(#clip-path-37);}.cls-30{clip-path:url(#clip-path-39);}.cls-31{clip-path:url(#clip-path-41);}.cls-32{clip-path:url(#clip-path-43);}.cls-33{clip-path:url(#clip-path-45);}.cls-34{clip-path:url(#clip-path-47);}.cls-35{clip-path:url(#clip-path-49);}.cls-36{clip-path:url(#clip-path-51);}.cls-37{clip-path:url(#clip-path-53);}.cls-38{clip-path:url(#clip-path-55);}.cls-40{clip-path:url(#clip-path-57);}.cls-41{clip-path:url(#clip-path-58);}.cls-42{clip-path:url(#clip-path-59);}.cls-43{clip-path:url(#clip-path-61);}.cls-44{clip-path:url(#clip-path-63);}.cls-45{clip-path:url(#clip-path-65);}.cls-46{clip-path:url(#clip-path-67);}.cls-47{clip-path:url(#clip-path-69);}.cls-48{clip-path:url(#clip-path-71);}.cls-49{clip-path:url(#clip-path-73);}.cls-50{clip-path:url(#clip-path-75);}.cls-51{clip-path:url(#clip-path-77);}.cls-52{clip-path:url(#clip-path-79);}</style><clipPath id="clip-path" transform="translate(1735.36 2418.3)"><path class="cls-1" d="M-1186.59-1319c0-1.15-1.15-1.72-2.48-1l-6.44,3.33a2.94,2.94,0,0,0-1.56,2.57v45.65a5.11,5.11,0,0,0,5.27,4.94,5.11,5.11,0,0,0,5.27-4.94C-1186.53-1285.28-1186.59-1302.11-1186.59-1319Z"/></clipPath><clipPath id="clip-path-2" transform="translate(1735.36 2418.3)"><rect class="cls-2" x="-1757.36" y="-2415.3" width="3840" height="5031"/></clipPath><clipPath id="clip-path-3" transform="translate(1735.36 2418.3)"><path class="cls-1" d="M-1213-1320.17a7,7,0,0,0-5,1.93,6.15,6.15,0,0,0-2.06,4.69,6.47,6.47,0,0,0,2.11,4.9,7,7,0,0,0,5.06,2,6.88,6.88,0,0,0,5-2,6.21,6.21,0,0,0,2.06-4.75,6.39,6.39,0,0,0-2.08-4.83A7.09,7.09,0,0,0-1213-1320.17Z"/></clipPath><clipPath id="clip-path-5" transform="translate(1735.36 2418.3)"><path class="cls-1" d="M-1207.72-1268.44v-26.33a5.1,5.1,0,0,0-5.26-4.94,5.11,5.11,0,0,0-5.28,4.94v26.33a5.11,5.11,0,0,0,5.28,4.94A5.1,5.1,0,0,0-1207.72-1268.44Z"/></clipPath><clipPath id="clip-path-7" transform="translate(1735.36 2418.3)"><path class="cls-1" d="M-1296.82-1306.92a5.12,5.12,0,0,0-5.28-4.94,5.11,5.11,0,0,0-5.26,4.94v38.48a5.1,5.1,0,0,0,5.26,4.94,5.11,5.11,0,0,0,5.28-4.94v-15.86c0-3.42.15-7.76,1.44-11a12.52,12.52,0,0,1,4.54-5.78,11.86,11.86,0,0,1,6.86-2.11,10.21,10.21,0,0,1,5.91,1.72,10,10,0,0,1,3.64,5.1c1,3,1.13,6.95,1.13,10.09v17.8a5.12,5.12,0,0,0,5.29,5,5.13,5.13,0,0,0,5.3-5v-16.15c0-3.34.13-7.7,1.41-10.83a12.26,12.26,0,0,1,4.53-5.65,12.26,12.26,0,0,1,7-2.08,9.35,9.35,0,0,1,7.89,3.56c2.26,3,2.5,8.61,2.5,12.21v19a5.12,5.12,0,0,0,5.28,4.94,5.11,5.11,0,0,0,5.27-4.94c0-7.63,0-15.26,0-22.89,0-3.67-.16-9-1.76-12.39a13.36,13.36,0,0,0-5.61-5.85,18.21,18.21,0,0,0-9.22-2.29,20.81,20.81,0,0,0-9.41,2.14,19.77,19.77,0,0,0-7.28,6.24l-1.32,1.85-1.11-2a15.63,15.63,0,0,0-5.93-6.15,16.21,16.21,0,0,0-8.24-2.1,22.07,22.07,0,0,0-8.51,1.63,21.44,21.44,0,0,0-7.13,4.93l-2.46,2.56Z"/></clipPath><clipPath id="clip-path-9" transform="translate(1735.36 2418.3)"><path class="cls-1" d="M-1138.88-1380c0-1.15,1.17-1.72,2.49-1l6.45,3.33a2.94,2.94,0,0,1,1.56,2.57v45.65a5.1,5.1,0,0,1-5.26,4.94,5.12,5.12,0,0,1-5.28-4.94Q-1138.92-1354.7-1138.88-1380Z"/></clipPath><clipPath id="clip-path-10" transform="translate(1735.36 2418.3)"><rect class="cls-2" x="-1720.36" y="-2476.3" width="3840" height="5031"/></clipPath><clipPath id="clip-path-11" transform="translate(1735.36 2418.3)"><path class="cls-1" d="M-1149.59-1380c0-1.15-1.15-1.72-2.48-1l-6.44,3.33a2.94,2.94,0,0,0-1.56,2.57v45.65a5.11,5.11,0,0,0,5.27,4.94,5.11,5.11,0,0,0,5.27-4.94C-1149.53-1346.28-1149.59-1363.11-1149.59-1380Z"/></clipPath><clipPath id="clip-path-13" transform="translate(1735.36 2418.3)"><path class="cls-1" d="M-1043.83-1364.24l.46.73a24.4,24.4,0,0,1,3.71,13,25,25,0,0,1-3.73,13.17,26.22,26.22,0,0,1-10.18,9.58,29.72,29.72,0,0,1-14.21,3.45,27.35,27.35,0,0,1-19.48-7.61,24.47,24.47,0,0,1-8.09-18.49,24.27,24.27,0,0,1,4.1-13.85,6.65,6.65,0,0,1,5.37-2.66,6.29,6.29,0,0,1,6.49,6.07,5.76,5.76,0,0,1-.8,2.91,14.65,14.65,0,0,0-1.89,7.49,14,14,0,0,0,4.09,10.51,14.08,14.08,0,0,0,10.31,4,14.24,14.24,0,0,0,10.39-4.07,14,14,0,0,0,4.15-10.46,15.25,15.25,0,0,0-1.87-7.64,6,6,0,0,1-.67-2.73,6.29,6.29,0,0,1,6.49-6.07A6.64,6.64,0,0,1-1043.83-1364.24Z"/></clipPath><clipPath id="clip-path-15" transform="translate(1735.36 2418.3)"><path class="cls-1" d="M-985.36-1331v-26.34c0-5.74-1.61-10.06-4.87-13a20.35,20.35,0,0,0-14.08-5.19,22.8,22.8,0,0,0-7.89,1.41,32.23,32.23,0,0,0-8.63,5,6.76,6.76,0,0,0-7-6.44,6.74,6.74,0,0,0-7,6.52v38a6.75,6.75,0,0,0,7,6.52,6.75,6.75,0,0,0,7-6.52v-13.45c0-5.18.21-8.54.61-10.11a13.16,13.16,0,0,1,4.23-7,11,11,0,0,1,7.3-2.54,9.47,9.47,0,0,1,5.49,1.53,8,8,0,0,1,3.12,4.46c.59,2,.9,5.9.9,11.84V-1331a6.73,6.73,0,0,0,6.9,6.52A6.75,6.75,0,0,0-985.36-1331Z"/></clipPath><clipPath id="clip-path-17" transform="translate(1735.36 2418.3)"><path class="cls-1" d="M-1059.27-1377.88a6.25,6.25,0,0,1,4.46,1.75,5.49,5.49,0,0,1,1.83,4.18,5.43,5.43,0,0,1-1.83,4.12,6.33,6.33,0,0,1-4.46,1.75,6.26,6.26,0,0,1-4.43-1.75,5.43,5.43,0,0,1-1.85-4.12,5.51,5.51,0,0,1,1.85-4.18A6.18,6.18,0,0,1-1059.27-1377.88Z"/></clipPath><clipPath id="clip-path-19" transform="translate(1735.36 2418.3)"><path class="cls-1" d="M-1075.76-1377.88a6.26,6.26,0,0,1,4.46,1.75,5.53,5.53,0,0,1,1.83,4.18,5.46,5.46,0,0,1-1.83,4.12,6.35,6.35,0,0,1-4.46,1.75,6.26,6.26,0,0,1-4.43-1.75,5.44,5.44,0,0,1-1.86-4.12,5.52,5.52,0,0,1,1.86-4.18A6.18,6.18,0,0,1-1075.76-1377.88Z"/></clipPath><clipPath id="clip-path-21" transform="translate(1735.36 2418.3)"><path class="cls-1" d="M-1176-1381.17a7,7,0,0,0-5,1.93,6.15,6.15,0,0,0-2.06,4.69,6.47,6.47,0,0,0,2.11,4.9,7,7,0,0,0,5.06,2,6.88,6.88,0,0,0,5-2,6.21,6.21,0,0,0,2.06-4.75,6.39,6.39,0,0,0-2.08-4.83A7.09,7.09,0,0,0-1176-1381.17Z"/></clipPath><clipPath id="clip-path-23" transform="translate(1735.36 2418.3)"><path class="cls-1" d="M-1170.72-1329.44v-26.33a5.1,5.1,0,0,0-5.26-4.94,5.11,5.11,0,0,0-5.28,4.94v26.33a5.11,5.11,0,0,0,5.28,4.94A5.1,5.1,0,0,0-1170.72-1329.44Z"/></clipPath><clipPath id="clip-path-25" transform="translate(1735.36 2418.3)"><path class="cls-1" d="M-1259.82-1367.92a5.12,5.12,0,0,0-5.28-4.94,5.11,5.11,0,0,0-5.26,4.94v38.48a5.1,5.1,0,0,0,5.26,4.94,5.11,5.11,0,0,0,5.28-4.94v-15.86c0-3.42.15-7.76,1.44-11a12.52,12.52,0,0,1,4.54-5.78,11.86,11.86,0,0,1,6.86-2.11,10.21,10.21,0,0,1,5.91,1.72,10,10,0,0,1,3.64,5.1c1,3,1.13,6.95,1.13,10.09v17.8a5.12,5.12,0,0,0,5.29,5,5.13,5.13,0,0,0,5.3-5v-16.15c0-3.34.13-7.7,1.41-10.83a12.26,12.26,0,0,1,4.53-5.65,12.26,12.26,0,0,1,7-2.08,9.35,9.35,0,0,1,7.89,3.56c2.26,3,2.5,8.61,2.5,12.21v19a5.12,5.12,0,0,0,5.28,4.94,5.11,5.11,0,0,0,5.27-4.94c0-7.63,0-15.26,0-22.89,0-3.67-.16-9-1.76-12.39a13.36,13.36,0,0,0-5.61-5.85,18.21,18.21,0,0,0-9.22-2.29,20.81,20.81,0,0,0-9.41,2.14,19.77,19.77,0,0,0-7.28,6.24l-1.32,1.85-1.11-2a15.63,15.63,0,0,0-5.93-6.15,16.21,16.21,0,0,0-8.24-2.1,22.07,22.07,0,0,0-8.51,1.63,21.44,21.44,0,0,0-7.13,4.93l-2.46,2.56Z"/></clipPath><clipPath id="clip-path-27" transform="translate(1735.36 2418.3)"><path class="cls-1" d="M-1107.24-1329.44v-26.33a5.11,5.11,0,0,0-5.27-4.94,5.12,5.12,0,0,0-5.28,4.94v26.33a5.12,5.12,0,0,0,5.28,4.94A5.11,5.11,0,0,0-1107.24-1329.44Z"/></clipPath><clipPath id="clip-path-29" transform="translate(1735.36 2418.3)"><path class="cls-1" d="M-1112.51-1381.17a7,7,0,0,0-5,1.93,6.16,6.16,0,0,0-2.07,4.69,6.47,6.47,0,0,0,2.11,4.9,7,7,0,0,0,5.07,2,6.87,6.87,0,0,0,4.94-2,6.22,6.22,0,0,0,2.07-4.75,6.39,6.39,0,0,0-2.08-4.83A7.11,7.11,0,0,0-1112.51-1381.17Z"/></clipPath><clipPath id="clip-path-31" transform="translate(1735.36 2418.3)"><path class="cls-1" d="M-1015.3-1299.46h-5.9a3.27,3.27,0,0,0,.13.56,3.36,3.36,0,0,0,.63,1.14,2.4,2.4,0,0,0,.94.69,3.22,3.22,0,0,0,1.24.24,2.84,2.84,0,0,0,1.43-.33,3.09,3.09,0,0,0,.94-.86,3.62,3.62,0,0,0,.54-1.22Zm-93.8,0H-1115a4.58,4.58,0,0,0,.15.56,3.17,3.17,0,0,0,.62,1.14,2.55,2.55,0,0,0,.94.69,3.21,3.21,0,0,0,1.23.24,2.85,2.85,0,0,0,1.44-.33,2.88,2.88,0,0,0,.94-.86,3.6,3.6,0,0,0,.53-1.22A1.41,1.41,0,0,0-1109.1-1299.46Zm-38.72,0h-5.9a3.27,3.27,0,0,0,.13.56,3.38,3.38,0,0,0,.64,1.14,2.44,2.44,0,0,0,.93.69,3.3,3.3,0,0,0,1.24.24,2.88,2.88,0,0,0,1.44-.33,2.88,2.88,0,0,0,.94-.86,3.8,3.8,0,0,0,.53-1.22C-1147.85-1299.31-1147.84-1299.38-1147.82-1299.46Zm-36.69-1.12a4.36,4.36,0,0,0-.25-1.56,3.47,3.47,0,0,0-.66-1.1,2.89,2.89,0,0,0-1-.64,3.09,3.09,0,0,0-1.2-.23,2.82,2.82,0,0,0-1.21.25,2.74,2.74,0,0,0-1,.67,3.22,3.22,0,0,0-.63,1.13,4.39,4.39,0,0,0-.25,1.53,5.63,5.63,0,0,0,.23,1.63,3.56,3.56,0,0,0,.64,1.14,2.48,2.48,0,0,0,.92.69,3.35,3.35,0,0,0,1.25.24,2.88,2.88,0,0,0,1.44-.33,2.88,2.88,0,0,0,.94-.86,4,4,0,0,0,.53-1.22A5.53,5.53,0,0,0-1184.51-1300.58Zm13.1,3.59h.56c.47,0,.93,0,1.4,0a5.42,5.42,0,0,0,1-.15,2.27,2.27,0,0,0,.74-.35,2.15,2.15,0,0,0,.59-.68,1.87,1.87,0,0,0,.27-.57c.06-.22.12-.44.17-.66a4.25,4.25,0,0,0,.08-.61c0-.18,0-.35,0-.53a6.73,6.73,0,0,0-.11-1.11,3.64,3.64,0,0,0-.38-1,2.08,2.08,0,0,0-.5-.6,2.39,2.39,0,0,0-.59-.36,2.64,2.64,0,0,0-.61-.17l-.67-.08a4.78,4.78,0,0,0-.53,0h-1.5Zm103.69-3.59a4.16,4.16,0,0,0-.26-1.56,3.63,3.63,0,0,0-.65-1.1,2.89,2.89,0,0,0-1-.64,3.09,3.09,0,0,0-1.2-.23,2.86,2.86,0,0,0-1.21.25,2.61,2.61,0,0,0-1,.67,3.1,3.1,0,0,0-.64,1.13,4.38,4.38,0,0,0-.24,1.53,5.62,5.62,0,0,0,.22,1.63,3.38,3.38,0,0,0,.64,1.14,2.44,2.44,0,0,0,.93.69,3.26,3.26,0,0,0,1.24.24,2.88,2.88,0,0,0,1.44-.33,2.88,2.88,0,0,0,.94-.86,3.8,3.8,0,0,0,.53-1.22A5.53,5.53,0,0,0-1067.72-1300.58Zm18.58,1.78c.06-.16.1-.3.15-.47a5.14,5.14,0,0,0,.15-1.3,4.47,4.47,0,0,0-.24-1.54,3.41,3.41,0,0,0-.64-1.1,2.74,2.74,0,0,0-1-.67,2.94,2.94,0,0,0-1.23-.25,3.24,3.24,0,0,0-1.19.24,2.88,2.88,0,0,0-1,.67,3.7,3.7,0,0,0-.65,1.14,4.42,4.42,0,0,0-.26,1.61,5.24,5.24,0,0,0,.21,1.51,3.1,3.1,0,0,0,.59,1.14,2.81,2.81,0,0,0,1,.74,3,3,0,0,0,1.3.26,2.54,2.54,0,0,0,1-.16,1.15,1.15,0,0,0,.17-.06l-.25-.23a.92.92,0,0,1-.28-.66,1,1,0,0,1,.12-.49,2.22,2.22,0,0,1,.25-.35,2.13,2.13,0,0,1,.4-.29,1.13,1.13,0,0,1,.54-.13c.28,0,.1,0,.37.07l.24.13,0,0Zm62.46-10.5a1.3,1.3,0,0,1,1.32,1.27,1.29,1.29,0,0,1-1.32,1.26A1.3,1.3,0,0,1-988-1308,1.3,1.3,0,0,1-986.68-1309.3Zm-220.25,0a1.28,1.28,0,0,1,1.3,1.27,1.28,1.28,0,0,1-1.3,1.26,1.29,1.29,0,0,1-1.32-1.26A1.3,1.3,0,0,1-1206.93-1309.3Zm-42,0a1.3,1.3,0,0,1,1.32,1.27,1.29,1.29,0,0,1-1.32,1.26,1.29,1.29,0,0,1-1.31-1.26A1.29,1.29,0,0,1-1249-1309.3Zm233.68,7.62a2.69,2.69,0,0,0-.14-.46,3.63,3.63,0,0,0-.65-1.1,2.89,2.89,0,0,0-1-.64,3.07,3.07,0,0,0-1.19-.23,2.81,2.81,0,0,0-1.22.25,2.46,2.46,0,0,0-.95.67,1.54,1.54,0,0,1-.31.25,1.09,1.09,0,0,1-.38.16,1.1,1.1,0,0,1-.54,0,1.15,1.15,0,0,1-.56-.33,1.14,1.14,0,0,1-.32-.52,1,1,0,0,1,0-.73,1.54,1.54,0,0,1,.29-.41,5.21,5.21,0,0,1,1.8-1.14,6.14,6.14,0,0,1,2.17-.4,9.09,9.09,0,0,1,1.27.12,5.06,5.06,0,0,1,1.67.6,4.91,4.91,0,0,1,1.49,1.26,5.53,5.53,0,0,1,.79,1.45,5.4,5.4,0,0,1,.33,1.36c0,.34.06.68.06,1a6.86,6.86,0,0,1-.16,1.57,6.44,6.44,0,0,1-.66,1.72,5.38,5.38,0,0,1-1.15,1.37,5.14,5.14,0,0,1-1.62.93,5.89,5.89,0,0,1-2,.33,6.61,6.61,0,0,1-2.21-.36,4.82,4.82,0,0,1-1.82-1.15,5.15,5.15,0,0,1-1.2-1.84,6.61,6.61,0,0,1-.44-2.49v-.1a1,1,0,0,1,.51-1,1.09,1.09,0,0,1,.37-.14l.27,0Zm-93.8,0a2,2,0,0,0-.14-.46,3.47,3.47,0,0,0-.66-1.1,2.8,2.8,0,0,0-.94-.64,3.19,3.19,0,0,0-1.22-.23,2.78,2.78,0,0,0-1.2.25,2.46,2.46,0,0,0-1,.67,1.48,1.48,0,0,1-.3.25,1.28,1.28,0,0,1-.38.16,1.13,1.13,0,0,1-.55,0,1.07,1.07,0,0,1-.56-.33,1.23,1.23,0,0,1-.32-.52,1,1,0,0,1,0-.73,1.87,1.87,0,0,1,.3-.41,5.36,5.36,0,0,1,1.79-1.14,6.22,6.22,0,0,1,2.17-.4,9.23,9.23,0,0,1,1.29.12,5.22,5.22,0,0,1,1.67.6,5.12,5.12,0,0,1,1.48,1.26,5,5,0,0,1,.79,1.45,5.38,5.38,0,0,1,.32,1.36,7,7,0,0,1,.08,1,8.2,8.2,0,0,1-.17,1.57,6.14,6.14,0,0,1-.67,1.72,5.18,5.18,0,0,1-1.15,1.37,5,5,0,0,1-1.61.93,5.91,5.91,0,0,1-2,.33,6.63,6.63,0,0,1-2.2-.36,5,5,0,0,1-1.82-1.15,5.15,5.15,0,0,1-1.2-1.84,6.61,6.61,0,0,1-.44-2.49v-.1a1,1,0,0,1,.5-1,1.24,1.24,0,0,1,.38-.14l.27,0Zm-38.72,0a2.69,2.69,0,0,0-.14-.46,3.63,3.63,0,0,0-.65-1.1,2.89,2.89,0,0,0-1-.64,3.07,3.07,0,0,0-1.19-.23,2.81,2.81,0,0,0-1.22.25,2.61,2.61,0,0,0-1,.67,2.26,2.26,0,0,1-.29.25,1.4,1.4,0,0,1-.4.16,1.1,1.1,0,0,1-.54,0,1.19,1.19,0,0,1-.56-.33,1.14,1.14,0,0,1-.32-.52,1,1,0,0,1,0-.73,1.81,1.81,0,0,1,.29-.41,5.21,5.21,0,0,1,1.8-1.14,6.22,6.22,0,0,1,2.17-.4,9,9,0,0,1,1.27.12,5.06,5.06,0,0,1,1.67.6,4.79,4.79,0,0,1,1.49,1.26,5.87,5.87,0,0,1,.8,1.45,5.38,5.38,0,0,1,.32,1.36c0,.34.06.68.06,1a6.86,6.86,0,0,1-.16,1.57,6.12,6.12,0,0,1-.66,1.72,5.38,5.38,0,0,1-1.15,1.37,5.14,5.14,0,0,1-1.62.93,5.85,5.85,0,0,1-2,.33,6.51,6.51,0,0,1-2.2-.36,4.82,4.82,0,0,1-1.82-1.15,5,5,0,0,1-1.21-1.84,6.6,6.6,0,0,1-.43-2.49v-.1a1,1,0,0,1,.5-1,1.28,1.28,0,0,1,.37-.14l.27,0Zm-113.58,1.11-2.15,5.25a1.13,1.13,0,0,1-.27.41,1.3,1.3,0,0,1-.88.24,1.17,1.17,0,0,1-.82-.24,1,1,0,0,1-.31-.41l-2.17-5.29.08,4.79a1.43,1.43,0,0,1,0,.29,1.17,1.17,0,0,1-.17.38,1,1,0,0,1-.39.35,1.27,1.27,0,0,1-.61.13,1.66,1.66,0,0,1-.62-.11,1,1,0,0,1-.42-.35,1.13,1.13,0,0,1-.17-.39,1.39,1.39,0,0,1,0-.27V-1305a1.55,1.55,0,0,1,0-.37,1.34,1.34,0,0,1,.29-.48c.23-.22.11-.09.34-.21a1.89,1.89,0,0,1,.86-.16,1.69,1.69,0,0,1,1,.25,1.49,1.49,0,0,1,.4.53l2.76,6.84,2.71-6.84a1.51,1.51,0,0,1,.4-.51,1.69,1.69,0,0,1,1-.27,2.05,2.05,0,0,1,.7.11,1.21,1.21,0,0,1,.52.29,1.06,1.06,0,0,1,.25.45,1.57,1.57,0,0,1,0,.37v9.24a.92.92,0,0,1,0,.28,1.12,1.12,0,0,1-.15.38,1.19,1.19,0,0,1-.39.35,1.44,1.44,0,0,1-.64.13,1.36,1.36,0,0,1-.85-.26,1.11,1.11,0,0,1-.39-.89Zm13.67,4.73c0,.09,0,.18,0,.28a1.17,1.17,0,0,1-.17.38,1,1,0,0,1-.39.37,1.35,1.35,0,0,1-.66.14,1.23,1.23,0,0,1-.84-.29,1.06,1.06,0,0,1-.38-.88v-9.23a1,1,0,0,1,0-.29,1,1,0,0,1,.16-.41,1.17,1.17,0,0,1,.4-.34,1.41,1.41,0,0,1,.63-.14,1.48,1.48,0,0,1,.66.14,1.18,1.18,0,0,1,.39.38,1.05,1.05,0,0,1,.17.39,2,2,0,0,1,0,.27Zm11.28-1.2h4.54l.26,0a1,1,0,0,1,.42.16.94.94,0,0,1,.36.38,1.14,1.14,0,0,1,.13.57,1.11,1.11,0,0,1-.14.6,1.19,1.19,0,0,1-.33.37,1.49,1.49,0,0,1-.44.17l-.26,0h-5.81l-.33,0a1.23,1.23,0,0,1-.46-.18,1.07,1.07,0,0,1-.33-.41,1.29,1.29,0,0,1-.11-.57v-9.14a2.4,2.4,0,0,1,0-.28,1.07,1.07,0,0,1,.18-.41,1.08,1.08,0,0,1,.41-.35,1.44,1.44,0,0,1,.62-.13,1.53,1.53,0,0,1,.64.13,1.19,1.19,0,0,1,.4.34.85.85,0,0,1,.19.42,1.27,1.27,0,0,1,0,.28Zm15.4,0h4.53l.26,0a1.12,1.12,0,0,1,.43.16.86.86,0,0,1,.35.38,1.14,1.14,0,0,1,.13.57,1.12,1.12,0,0,1-.15.6.91.91,0,0,1-.33.37,1.3,1.3,0,0,1-.44.17l-.25,0h-5.81c-.12,0-.22,0-.34,0a1.14,1.14,0,0,1-.44-.18,1,1,0,0,1-.35-.41,1.44,1.44,0,0,1-.11-.57v-9.14a.87.87,0,0,1,0-.28,1.35,1.35,0,0,1,.16-.41,1.37,1.37,0,0,1,.41-.35,1.59,1.59,0,0,1,.64-.13,1.59,1.59,0,0,1,.64.13,1.26,1.26,0,0,1,.39.34,1,1,0,0,1,.2.42,2.4,2.4,0,0,1,0,.28Zm15.35,1.2c0,.09,0,.18,0,.28a1.37,1.37,0,0,1-.15.38,1.18,1.18,0,0,1-.4.37,1.32,1.32,0,0,1-.65.14,1.24,1.24,0,0,1-.85-.29,1.1,1.1,0,0,1-.39-.88v-9.23a1.12,1.12,0,0,1,0-.27,1,1,0,0,1,.18-.43,1.06,1.06,0,0,1,.39-.34,1.39,1.39,0,0,1,.64-.14,1.44,1.44,0,0,1,.65.14,1.32,1.32,0,0,1,.4.38,1.22,1.22,0,0,1,.15.39,2,2,0,0,1,0,.27Zm18.14-10.49a9,9,0,0,1,1.27.12,5.14,5.14,0,0,1,1.67.6,4.91,4.91,0,0,1,1.49,1.26,5.26,5.26,0,0,1,.8,1.45,6.4,6.4,0,0,1,.32,1.36c0,.34.06.68.06,1a7.46,7.46,0,0,1-.15,1.57,6.14,6.14,0,0,1-.67,1.72,5.18,5.18,0,0,1-1.15,1.37,5,5,0,0,1-1.62.93,5.85,5.85,0,0,1-2,.33,6.51,6.51,0,0,1-2.2-.36,4.82,4.82,0,0,1-1.82-1.15,4.92,4.92,0,0,1-1.21-1.84,6.6,6.6,0,0,1-.43-2.49,6.52,6.52,0,0,1,.44-2.48,5.53,5.53,0,0,1,1.21-1.86,5.34,5.34,0,0,1,1.81-1.14A6.22,6.22,0,0,1-1187.56-1306.33Zm14.91,11.58a1.23,1.23,0,0,1-.27,0,1.08,1.08,0,0,1-.44-.14,1.21,1.21,0,0,1-.38-.4,1.26,1.26,0,0,1-.16-.63v-9a1.26,1.26,0,0,1,.29-.85,1.27,1.27,0,0,1,1-.35h2.76l1.09,0a7.63,7.63,0,0,1,1.15.18,4.29,4.29,0,0,1,1.13.42,3.63,3.63,0,0,1,1,.79,3.87,3.87,0,0,1,.76,1,6.23,6.23,0,0,1,.43,1.08,5.73,5.73,0,0,1,.21,1.08,8.39,8.39,0,0,1,.06,1,7.54,7.54,0,0,1-.41,2.58,4.67,4.67,0,0,1-1.14,1.83,3.58,3.58,0,0,1-1.15.81,6,6,0,0,1-1.23.42,8,8,0,0,1-1.21.16c-.37,0-.72,0-1.06,0Zm44.53-5.82-2.15,5.25a1,1,0,0,1-.28.41,1.27,1.27,0,0,1-.88.24,1.25,1.25,0,0,1-.83-.24,1.18,1.18,0,0,1-.29-.41l-2.17-5.31.08,4.81a2.85,2.85,0,0,1,0,.29,1.17,1.17,0,0,1-.17.38,1,1,0,0,1-.39.35,1.31,1.31,0,0,1-.62.13,1.64,1.64,0,0,1-.61-.11,1,1,0,0,1-.43-.35,1.34,1.34,0,0,1-.16-.39,1.39,1.39,0,0,1,0-.27V-1305a1.55,1.55,0,0,1,0-.37,1.21,1.21,0,0,1,.29-.48c.23-.22.09-.09.33-.21a2,2,0,0,1,.87-.16,1.59,1.59,0,0,1,1,.25,1.31,1.31,0,0,1,.41.53l2.76,6.84,2.72-6.84a1.61,1.61,0,0,1,.39-.51,1.74,1.74,0,0,1,1-.27,2.13,2.13,0,0,1,.7.11,1.12,1.12,0,0,1,.51.29.88.88,0,0,1,.25.45,1.55,1.55,0,0,1,0,.37v9.24a.92.92,0,0,1,0,.28,1,1,0,0,1-.16.38,1.16,1.16,0,0,1-.38.35,1.44,1.44,0,0,1-.64.13,1.36,1.36,0,0,1-.85-.26,1,1,0,0,1-.39-.89Zm36.65-1.16,0,5.91a2.85,2.85,0,0,1,0,.29,1.43,1.43,0,0,1-.17.38,1.07,1.07,0,0,1-.38.35,1.44,1.44,0,0,1-.64.13,1.46,1.46,0,0,1-.65-.13,1,1,0,0,1-.39-.32,1,1,0,0,1-.19-.4c0-.1,0-.2,0-.29V-1305a1.32,1.32,0,0,1,0-.29.91.91,0,0,1,.23-.47,1.15,1.15,0,0,1,.74-.41,3.29,3.29,0,0,1,.44,0,1.34,1.34,0,0,1,.74.19,1.34,1.34,0,0,1,.38.37l4.52,6.47c0-.14,0-.3,0-.45l0-5.42a1.29,1.29,0,0,1,0-.29,1.09,1.09,0,0,1,.16-.38,1.07,1.07,0,0,1,.43-.36,1.63,1.63,0,0,1,.6-.11,1.33,1.33,0,0,1,.63.14,1,1,0,0,1,.38.33.93.93,0,0,1,.18.39,2.4,2.4,0,0,1,0,.28v9.29c0,.08,0,.19,0,.28a1.29,1.29,0,0,1-.2.41,1.22,1.22,0,0,1-.41.33,1.62,1.62,0,0,1-.7.13,1.5,1.5,0,0,1-.77-.17,1.2,1.2,0,0,1-.36-.35l-4.31-6.2C-1091.31-1301.49-1091.38-1301.61-1091.47-1301.73Zm20.7-4.6a9.09,9.09,0,0,1,1.27.12,5.06,5.06,0,0,1,1.67.6,4.91,4.91,0,0,1,1.49,1.26,5.26,5.26,0,0,1,.8,1.45,5.85,5.85,0,0,1,.32,1.36c0,.34.06.68.06,1a6.35,6.35,0,0,1-.17,1.57,5.8,5.8,0,0,1-.65,1.72,5.18,5.18,0,0,1-1.15,1.37,5.25,5.25,0,0,1-1.62.93,5.85,5.85,0,0,1-2,.33,6.51,6.51,0,0,1-2.2-.36,4.82,4.82,0,0,1-1.82-1.15A4.92,4.92,0,0,1-1076-1298a6.6,6.6,0,0,1-.43-2.49,6.52,6.52,0,0,1,.44-2.48,5.41,5.41,0,0,1,1.22-1.86,5.21,5.21,0,0,1,1.8-1.14A6.22,6.22,0,0,1-1070.77-1306.33Zm21.8,11h0a3.23,3.23,0,0,1-.7.34,9,9,0,0,1-1,.28,6.74,6.74,0,0,1-1.27.11,6,6,0,0,1-2.29-.41,5.32,5.32,0,0,1-1.79-1.18,5.53,5.53,0,0,1-1.14-1.86,7.15,7.15,0,0,1-.38-2.38,8.35,8.35,0,0,1,.14-1.49,5.66,5.66,0,0,1,.51-1.5,5.41,5.41,0,0,1,.73-1.06,5.24,5.24,0,0,1,1.06-.93,5.34,5.34,0,0,1,1.41-.66,6.07,6.07,0,0,1,1.75-.25,6.08,6.08,0,0,1,2.27.41,4.85,4.85,0,0,1,1.79,1.19,5.16,5.16,0,0,1,1.16,1.86,7.19,7.19,0,0,1,.39,2.43c0,.28,0,.56,0,.84a5.58,5.58,0,0,1-.17.89,5.39,5.39,0,0,1-.56,1.42l-.21.32.71.71a1.22,1.22,0,0,1,.24.32,1,1,0,0,1,.11.47,1.21,1.21,0,0,1-.36.82,1.27,1.27,0,0,1-.85.35.87.87,0,0,1-.53-.15.91.91,0,0,1-.29-.19Zm13-8.57h-2.44a1.1,1.1,0,0,1-.41-.16,1,1,0,0,1-.35-.37,1.33,1.33,0,0,1-.12-.59,1.15,1.15,0,0,1,.13-.58,1,1,0,0,1,.34-.35.91.91,0,0,1,.42-.17l.24,0h6.83a1.18,1.18,0,0,1,.55.11,1.54,1.54,0,0,1,.38.34,1,1,0,0,1,.21.69,1.06,1.06,0,0,1-.14.58,1.27,1.27,0,0,1-.33.36,1.19,1.19,0,0,1-.43.16h-2.39v8.07a2.66,2.66,0,0,1,0,.28.91.91,0,0,1-.19.41,1.08,1.08,0,0,1-.41.35,1.35,1.35,0,0,1-.63.13,1.33,1.33,0,0,1-.62-.13,1,1,0,0,1-.43-.36,1.49,1.49,0,0,1-.15-.4,1.41,1.41,0,0,1,0-.28Zm36.58,2.21a10.37,10.37,0,0,1,1,.31,4.43,4.43,0,0,1,1.11.6,3.35,3.35,0,0,1,.88,1,3.23,3.23,0,0,1,.36,1.59,3.27,3.27,0,0,1-.44,1.72,3.37,3.37,0,0,1-1.11,1.11,5.34,5.34,0,0,1-1.45.57,7.47,7.47,0,0,1-1.49.16,6.5,6.5,0,0,1-1.7-.22,4.05,4.05,0,0,1-1.55-.71,3.41,3.41,0,0,1-.71-.71,5.65,5.65,0,0,1-.42-.72,3.22,3.22,0,0,1-.22-.64,1.68,1.68,0,0,1-.07-.44,1.12,1.12,0,0,1,.2-.66,1.29,1.29,0,0,1,.41-.35,1.52,1.52,0,0,1,.44-.15,1.32,1.32,0,0,1,.34,0,1.09,1.09,0,0,1,.87.32,1.24,1.24,0,0,1,.24.47c.08.25.17.48.26.72a1.16,1.16,0,0,0,.47.51,1.53,1.53,0,0,0,.79.32,4.23,4.23,0,0,0,.79.08h.33l.36-.05.41-.11a.79.79,0,0,0,.31-.17,1.1,1.1,0,0,0,.33-.38,1.07,1.07,0,0,0,.12-.49,1,1,0,0,0-.1-.46,2.07,2.07,0,0,0-.28-.32,2.24,2.24,0,0,0-.65-.34c-.35-.13-.71-.23-1.08-.34l-1.13-.3c-.23-.06-.44-.13-.67-.21a5.19,5.19,0,0,1-.62-.23,2.63,2.63,0,0,1-.41-.21,2.47,2.47,0,0,1-.58-.48,3,3,0,0,1-.47-.79,3.06,3.06,0,0,1-.21-1.16,3.66,3.66,0,0,1,.26-1.36,2.87,2.87,0,0,1,.82-1.13,3.83,3.83,0,0,1,1.33-.72,6.22,6.22,0,0,1,1.78-.25l.63,0a5.39,5.39,0,0,1,.79.12,4.92,4.92,0,0,1,.85.26,3.67,3.67,0,0,1,.82.52,2.63,2.63,0,0,1,.5.5,4,4,0,0,1,.38.54,3.39,3.39,0,0,1,.24.55,1.52,1.52,0,0,1,.11.53,1.13,1.13,0,0,1-.44.91,1.45,1.45,0,0,1-.85.26,1.61,1.61,0,0,1-.43-.07,1,1,0,0,1-.48-.4c-.06-.08-.11-.19-.17-.29l-.13-.26a2.46,2.46,0,0,0-.19-.32,1.33,1.33,0,0,0-.28-.3,3.06,3.06,0,0,0-.54-.28,3.22,3.22,0,0,0-.88-.11,3.82,3.82,0,0,0-.68.07,1.12,1.12,0,0,0-.47.21,1.12,1.12,0,0,0-.32.33.94.94,0,0,0-.1.5.8.8,0,0,0,0,.31l.14.16a1.51,1.51,0,0,0,.48.22c.25.09.51.16.76.23Zm14,5.86a1.41,1.41,0,0,1,0,.28,1.77,1.77,0,0,1-.15.38,1.22,1.22,0,0,1-.41.37,1.32,1.32,0,0,1-.65.14,1.27,1.27,0,0,1-.85-.29,1.09,1.09,0,0,1-.38-.88v-9.23a2.85,2.85,0,0,1,0-.29,1.07,1.07,0,0,1,.18-.41.89.89,0,0,1,.4-.34,1.31,1.31,0,0,1,.62-.14,1.44,1.44,0,0,1,.65.14,1.36,1.36,0,0,1,.41.38,1.51,1.51,0,0,1,.15.39,1.12,1.12,0,0,1,0,.27Zm-200-13.46a1.3,1.3,0,0,1,1.32,1.27,1.3,1.3,0,0,1-1.32,1.26,1.29,1.29,0,0,1-1.31-1.26A1.29,1.29,0,0,1-1185.48-1309.3Zm-4.17,0a1.3,1.3,0,0,1,1.32,1.27,1.3,1.3,0,0,1-1.32,1.26A1.29,1.29,0,0,1-1191-1308,1.3,1.3,0,0,1-1189.65-1309.3Zm121,0a1.3,1.3,0,0,1,1.32,1.27,1.29,1.29,0,0,1-1.32,1.26A1.29,1.29,0,0,1-1070-1308,1.3,1.3,0,0,1-1068.69-1309.3Zm-4.17,0a1.28,1.28,0,0,1,1.3,1.27,1.28,1.28,0,0,1-1.3,1.26,1.29,1.29,0,0,1-1.32-1.26A1.3,1.3,0,0,1-1072.86-1309.3Z"/></clipPath><clipPath id="clip-path-33" transform="translate(1735.36 2418.3)"><path class="cls-3" d="M-1153.88-1322c0-1.15,1.17-1.72,2.49-1l6.45,3.33a2.94,2.94,0,0,1,1.56,2.57v45.65a5.1,5.1,0,0,1-5.26,4.94,5.12,5.12,0,0,1-5.28-4.94Q-1153.92-1296.7-1153.88-1322Z"/></clipPath><clipPath id="clip-path-34" transform="translate(1735.36 2418.3)"><rect class="cls-4" x="-1735.36" y="-2418.3" width="3840" height="5031"/></clipPath><clipPath id="clip-path-35" transform="translate(1735.36 2418.3)"><path class="cls-3" d="M-1164.59-1322c0-1.15-1.15-1.72-2.48-1l-6.44,3.33a2.94,2.94,0,0,0-1.56,2.57v45.65a5.11,5.11,0,0,0,5.27,4.94,5.11,5.11,0,0,0,5.27-4.94C-1164.53-1288.28-1164.59-1305.11-1164.59-1322Z"/></clipPath><clipPath id="clip-path-37" transform="translate(1735.36 2418.3)"><path class="cls-3" d="M-1058.83-1306.24l.46.73a24.4,24.4,0,0,1,3.71,13,25,25,0,0,1-3.73,13.17,26.22,26.22,0,0,1-10.18,9.58,29.72,29.72,0,0,1-14.21,3.45,27.35,27.35,0,0,1-19.48-7.61,24.47,24.47,0,0,1-8.09-18.49,24.27,24.27,0,0,1,4.1-13.85,6.65,6.65,0,0,1,5.37-2.66,6.29,6.29,0,0,1,6.49,6.07,5.76,5.76,0,0,1-.8,2.91,14.65,14.65,0,0,0-1.89,7.49,14,14,0,0,0,4.09,10.51,14.08,14.08,0,0,0,10.31,4,14.24,14.24,0,0,0,10.39-4.07,14,14,0,0,0,4.15-10.46,15.25,15.25,0,0,0-1.87-7.64,6,6,0,0,1-.67-2.73,6.29,6.29,0,0,1,6.49-6.07A6.64,6.64,0,0,1-1058.83-1306.24Z"/></clipPath><clipPath id="clip-path-39" transform="translate(1735.36 2418.3)"><path class="cls-3" d="M-1000.36-1273v-26.34c0-5.74-1.61-10.06-4.87-13a20.35,20.35,0,0,0-14.08-5.19,22.8,22.8,0,0,0-7.89,1.41,32.23,32.23,0,0,0-8.63,5,6.76,6.76,0,0,0-7-6.44,6.74,6.74,0,0,0-7,6.52v38a6.75,6.75,0,0,0,7,6.52,6.75,6.75,0,0,0,7-6.52v-13.45c0-5.18.21-8.54.61-10.11a13.16,13.16,0,0,1,4.23-7,11,11,0,0,1,7.3-2.54,9.47,9.47,0,0,1,5.49,1.53,8,8,0,0,1,3.12,4.46c.59,2,.9,5.9.9,11.84V-1273a6.73,6.73,0,0,0,6.9,6.52A6.75,6.75,0,0,0-1000.36-1273Z"/></clipPath><clipPath id="clip-path-41" transform="translate(1735.36 2418.3)"><path class="cls-3" d="M-1074.27-1319.88a6.25,6.25,0,0,1,4.46,1.75,5.49,5.49,0,0,1,1.83,4.18,5.43,5.43,0,0,1-1.83,4.12,6.33,6.33,0,0,1-4.46,1.75,6.26,6.26,0,0,1-4.43-1.75,5.43,5.43,0,0,1-1.85-4.12,5.51,5.51,0,0,1,1.85-4.18A6.18,6.18,0,0,1-1074.27-1319.88Z"/></clipPath><clipPath id="clip-path-43" transform="translate(1735.36 2418.3)"><path class="cls-3" d="M-1090.76-1319.88a6.26,6.26,0,0,1,4.46,1.75,5.53,5.53,0,0,1,1.83,4.18,5.46,5.46,0,0,1-1.83,4.12,6.35,6.35,0,0,1-4.46,1.75,6.26,6.26,0,0,1-4.43-1.75,5.44,5.44,0,0,1-1.86-4.12,5.52,5.52,0,0,1,1.86-4.18A6.18,6.18,0,0,1-1090.76-1319.88Z"/></clipPath><clipPath id="clip-path-45" transform="translate(1735.36 2418.3)"><path class="cls-3" d="M-1191-1323.17a7,7,0,0,0-5,1.93,6.15,6.15,0,0,0-2.06,4.69,6.47,6.47,0,0,0,2.11,4.9,7,7,0,0,0,5.06,2,6.88,6.88,0,0,0,5-2,6.21,6.21,0,0,0,2.06-4.75,6.39,6.39,0,0,0-2.08-4.83A7.09,7.09,0,0,0-1191-1323.17Z"/></clipPath><clipPath id="clip-path-47" transform="translate(1735.36 2418.3)"><path class="cls-3" d="M-1185.72-1271.44v-26.33a5.1,5.1,0,0,0-5.26-4.94,5.11,5.11,0,0,0-5.28,4.94v26.33a5.11,5.11,0,0,0,5.28,4.94A5.1,5.1,0,0,0-1185.72-1271.44Z"/></clipPath><clipPath id="clip-path-49" transform="translate(1735.36 2418.3)"><path class="cls-3" d="M-1274.82-1309.92a5.12,5.12,0,0,0-5.28-4.94,5.11,5.11,0,0,0-5.26,4.94v38.48a5.1,5.1,0,0,0,5.26,4.94,5.11,5.11,0,0,0,5.28-4.94v-15.86c0-3.42.15-7.76,1.44-11a12.52,12.52,0,0,1,4.54-5.78,11.86,11.86,0,0,1,6.86-2.11,10.21,10.21,0,0,1,5.91,1.72,10,10,0,0,1,3.64,5.1c1,3,1.13,6.95,1.13,10.09v17.8a5.12,5.12,0,0,0,5.29,5,5.13,5.13,0,0,0,5.3-5v-16.15c0-3.34.13-7.7,1.41-10.83a12.26,12.26,0,0,1,4.53-5.65,12.26,12.26,0,0,1,7-2.08,9.35,9.35,0,0,1,7.89,3.56c2.26,3,2.5,8.61,2.5,12.21v19a5.12,5.12,0,0,0,5.28,4.94,5.11,5.11,0,0,0,5.27-4.94c0-7.63,0-15.26,0-22.89,0-3.67-.16-9-1.76-12.39a13.36,13.36,0,0,0-5.61-5.85,18.21,18.21,0,0,0-9.22-2.29,20.81,20.81,0,0,0-9.41,2.14,19.77,19.77,0,0,0-7.28,6.24l-1.32,1.85-1.11-2a15.63,15.63,0,0,0-5.93-6.15,16.21,16.21,0,0,0-8.24-2.1,22.07,22.07,0,0,0-8.51,1.63,21.44,21.44,0,0,0-7.13,4.93l-2.46,2.56Z"/></clipPath><clipPath id="clip-path-51" transform="translate(1735.36 2418.3)"><path class="cls-3" d="M-1122.24-1271.44v-26.33a5.11,5.11,0,0,0-5.27-4.94,5.12,5.12,0,0,0-5.28,4.94v26.33a5.12,5.12,0,0,0,5.28,4.94A5.11,5.11,0,0,0-1122.24-1271.44Z"/></clipPath><clipPath id="clip-path-53" transform="translate(1735.36 2418.3)"><path class="cls-3" d="M-1127.51-1323.17a7,7,0,0,0-5,1.93,6.16,6.16,0,0,0-2.07,4.69,6.47,6.47,0,0,0,2.11,4.9,7,7,0,0,0,5.07,2,6.87,6.87,0,0,0,4.94-2,6.22,6.22,0,0,0,2.07-4.75,6.39,6.39,0,0,0-2.08-4.83A7.11,7.11,0,0,0-1127.51-1323.17Z"/></clipPath><clipPath id="clip-path-55" transform="translate(1735.36 2418.3)"><path class="cls-3" d="M-1030.3-1241.46h-5.9a3.27,3.27,0,0,0,.13.56,3.36,3.36,0,0,0,.63,1.14,2.4,2.4,0,0,0,.94.69,3.22,3.22,0,0,0,1.24.24,2.84,2.84,0,0,0,1.43-.33,3.09,3.09,0,0,0,.94-.86,3.62,3.62,0,0,0,.54-1.22Zm-93.8,0H-1130a4.58,4.58,0,0,0,.15.56,3.17,3.17,0,0,0,.62,1.14,2.55,2.55,0,0,0,.94.69,3.21,3.21,0,0,0,1.23.24,2.85,2.85,0,0,0,1.44-.33,2.88,2.88,0,0,0,.94-.86,3.6,3.6,0,0,0,.53-1.22A1.41,1.41,0,0,0-1124.1-1241.46Zm-38.72,0h-5.9a3.27,3.27,0,0,0,.13.56,3.38,3.38,0,0,0,.64,1.14,2.44,2.44,0,0,0,.93.69,3.3,3.3,0,0,0,1.24.24,2.88,2.88,0,0,0,1.44-.33,2.88,2.88,0,0,0,.94-.86,3.8,3.8,0,0,0,.53-1.22C-1162.85-1241.31-1162.84-1241.38-1162.82-1241.46Zm-36.69-1.12a4.36,4.36,0,0,0-.25-1.56,3.47,3.47,0,0,0-.66-1.1,2.89,2.89,0,0,0-1-.64,3.09,3.09,0,0,0-1.2-.23,2.82,2.82,0,0,0-1.21.25,2.74,2.74,0,0,0-1,.67,3.22,3.22,0,0,0-.63,1.13,4.39,4.39,0,0,0-.25,1.53,5.63,5.63,0,0,0,.23,1.63,3.56,3.56,0,0,0,.64,1.14,2.48,2.48,0,0,0,.92.69,3.35,3.35,0,0,0,1.25.24,2.88,2.88,0,0,0,1.44-.33,2.88,2.88,0,0,0,.94-.86,4,4,0,0,0,.53-1.22A5.53,5.53,0,0,0-1199.51-1242.58Zm13.1,3.59h.56c.47,0,.93,0,1.4,0a5.42,5.42,0,0,0,1-.15,2.27,2.27,0,0,0,.74-.35,2.15,2.15,0,0,0,.59-.68,1.87,1.87,0,0,0,.27-.57c.06-.22.12-.44.17-.66a4.25,4.25,0,0,0,.08-.61c0-.18,0-.35,0-.53a6.73,6.73,0,0,0-.11-1.11,3.64,3.64,0,0,0-.38-1,2.08,2.08,0,0,0-.5-.6,2.39,2.39,0,0,0-.59-.36,2.64,2.64,0,0,0-.61-.17l-.67-.08a4.78,4.78,0,0,0-.53,0h-1.5Zm103.69-3.59a4.16,4.16,0,0,0-.26-1.56,3.63,3.63,0,0,0-.65-1.1,2.89,2.89,0,0,0-1-.64,3.09,3.09,0,0,0-1.2-.23,2.86,2.86,0,0,0-1.21.25,2.61,2.61,0,0,0-1,.67,3.1,3.1,0,0,0-.64,1.13,4.38,4.38,0,0,0-.24,1.53,5.62,5.62,0,0,0,.22,1.63,3.38,3.38,0,0,0,.64,1.14,2.44,2.44,0,0,0,.93.69,3.26,3.26,0,0,0,1.24.24,2.88,2.88,0,0,0,1.44-.33,2.88,2.88,0,0,0,.94-.86,3.8,3.8,0,0,0,.53-1.22A5.53,5.53,0,0,0-1082.72-1242.58Zm18.58,1.78c.06-.16.1-.3.15-.47a5.14,5.14,0,0,0,.15-1.3,4.47,4.47,0,0,0-.24-1.54,3.41,3.41,0,0,0-.64-1.1,2.74,2.74,0,0,0-1-.67,2.94,2.94,0,0,0-1.23-.25,3.24,3.24,0,0,0-1.19.24,2.88,2.88,0,0,0-1,.67,3.7,3.7,0,0,0-.65,1.14,4.42,4.42,0,0,0-.26,1.61,5.24,5.24,0,0,0,.21,1.51,3.1,3.1,0,0,0,.59,1.14,2.81,2.81,0,0,0,1,.74,3,3,0,0,0,1.3.26,2.54,2.54,0,0,0,1-.16,1.15,1.15,0,0,0,.17-.06l-.25-.23a.92.92,0,0,1-.28-.66,1,1,0,0,1,.12-.49,2.22,2.22,0,0,1,.25-.35,2.13,2.13,0,0,1,.4-.29,1.13,1.13,0,0,1,.54-.13c.28,0,.1,0,.37.07l.24.13,0,0Zm62.46-10.5a1.3,1.3,0,0,1,1.32,1.27,1.29,1.29,0,0,1-1.32,1.26A1.3,1.3,0,0,1-1003-1250,1.3,1.3,0,0,1-1001.68-1251.3Zm-220.25,0a1.28,1.28,0,0,1,1.3,1.27,1.28,1.28,0,0,1-1.3,1.26,1.29,1.29,0,0,1-1.32-1.26A1.3,1.3,0,0,1-1221.93-1251.3Zm-42,0a1.3,1.3,0,0,1,1.32,1.27,1.29,1.29,0,0,1-1.32,1.26,1.29,1.29,0,0,1-1.31-1.26A1.29,1.29,0,0,1-1264-1251.3Zm233.68,7.62a2.69,2.69,0,0,0-.14-.46,3.63,3.63,0,0,0-.65-1.1,2.89,2.89,0,0,0-1-.64,3.07,3.07,0,0,0-1.19-.23,2.81,2.81,0,0,0-1.22.25,2.46,2.46,0,0,0-1,.67,1.54,1.54,0,0,1-.31.25,1.09,1.09,0,0,1-.38.16,1.1,1.1,0,0,1-.54,0,1.15,1.15,0,0,1-.56-.33,1.14,1.14,0,0,1-.32-.52,1,1,0,0,1,0-.73,1.54,1.54,0,0,1,.29-.41,5.21,5.21,0,0,1,1.8-1.14,6.14,6.14,0,0,1,2.17-.4,9.09,9.09,0,0,1,1.27.12,5.06,5.06,0,0,1,1.67.6,4.91,4.91,0,0,1,1.49,1.26,5.53,5.53,0,0,1,.79,1.45,5.4,5.4,0,0,1,.33,1.36c0,.34.06.68.06,1a6.86,6.86,0,0,1-.16,1.57,6.44,6.44,0,0,1-.66,1.72,5.38,5.38,0,0,1-1.15,1.37,5.14,5.14,0,0,1-1.62.93,5.89,5.89,0,0,1-2,.33,6.61,6.61,0,0,1-2.21-.36,4.82,4.82,0,0,1-1.82-1.15,5.15,5.15,0,0,1-1.2-1.84,6.61,6.61,0,0,1-.44-2.49v-.1a1,1,0,0,1,.51-1,1.09,1.09,0,0,1,.37-.14l.27,0Zm-93.8,0a2,2,0,0,0-.14-.46,3.47,3.47,0,0,0-.66-1.1,2.8,2.8,0,0,0-.94-.64,3.19,3.19,0,0,0-1.22-.23,2.78,2.78,0,0,0-1.2.25,2.46,2.46,0,0,0-1,.67,1.48,1.48,0,0,1-.3.25,1.28,1.28,0,0,1-.38.16,1.13,1.13,0,0,1-.55,0,1.07,1.07,0,0,1-.56-.33,1.23,1.23,0,0,1-.32-.52,1,1,0,0,1,0-.73,1.87,1.87,0,0,1,.3-.41,5.36,5.36,0,0,1,1.79-1.14,6.22,6.22,0,0,1,2.17-.4,9.23,9.23,0,0,1,1.29.12,5.22,5.22,0,0,1,1.67.6,5.12,5.12,0,0,1,1.48,1.26,5,5,0,0,1,.79,1.45,5.38,5.38,0,0,1,.32,1.36,7,7,0,0,1,.08,1,8.2,8.2,0,0,1-.17,1.57,6.14,6.14,0,0,1-.67,1.72,5.18,5.18,0,0,1-1.15,1.37,5,5,0,0,1-1.61.93,5.91,5.91,0,0,1-2,.33,6.63,6.63,0,0,1-2.2-.36,5,5,0,0,1-1.82-1.15,5.15,5.15,0,0,1-1.2-1.84,6.61,6.61,0,0,1-.44-2.49v-.1a1,1,0,0,1,.5-1,1.24,1.24,0,0,1,.38-.14l.27,0Zm-38.72,0a2.69,2.69,0,0,0-.14-.46,3.63,3.63,0,0,0-.65-1.1,2.89,2.89,0,0,0-1-.64,3.07,3.07,0,0,0-1.19-.23,2.81,2.81,0,0,0-1.22.25,2.61,2.61,0,0,0-1,.67,2.26,2.26,0,0,1-.29.25,1.4,1.4,0,0,1-.4.16,1.1,1.1,0,0,1-.54,0,1.19,1.19,0,0,1-.56-.33,1.14,1.14,0,0,1-.32-.52,1,1,0,0,1,0-.73,1.81,1.81,0,0,1,.29-.41,5.21,5.21,0,0,1,1.8-1.14,6.22,6.22,0,0,1,2.17-.4,9,9,0,0,1,1.27.12,5.06,5.06,0,0,1,1.67.6,4.79,4.79,0,0,1,1.49,1.26,5.87,5.87,0,0,1,.8,1.45,5.38,5.38,0,0,1,.32,1.36c0,.34.06.68.06,1a6.86,6.86,0,0,1-.16,1.57,6.12,6.12,0,0,1-.66,1.72,5.38,5.38,0,0,1-1.15,1.37,5.14,5.14,0,0,1-1.62.93,5.85,5.85,0,0,1-2,.33,6.51,6.51,0,0,1-2.2-.36,4.82,4.82,0,0,1-1.82-1.15,5,5,0,0,1-1.21-1.84,6.6,6.6,0,0,1-.43-2.49v-.1a1,1,0,0,1,.5-1,1.28,1.28,0,0,1,.37-.14l.27,0Zm-113.58,1.11-2.15,5.25a1.13,1.13,0,0,1-.27.41,1.3,1.3,0,0,1-.88.24,1.17,1.17,0,0,1-.82-.24,1,1,0,0,1-.31-.41l-2.17-5.29.08,4.79a1.43,1.43,0,0,1,0,.29,1.17,1.17,0,0,1-.17.38,1,1,0,0,1-.39.35,1.27,1.27,0,0,1-.61.13,1.66,1.66,0,0,1-.62-.11,1,1,0,0,1-.42-.35,1.13,1.13,0,0,1-.17-.39,1.39,1.39,0,0,1,0-.27V-1247a1.55,1.55,0,0,1,0-.37,1.34,1.34,0,0,1,.29-.48c.23-.22.11-.09.34-.21a1.89,1.89,0,0,1,.86-.16,1.69,1.69,0,0,1,1,.25,1.49,1.49,0,0,1,.4.53l2.76,6.84,2.71-6.84a1.51,1.51,0,0,1,.4-.51,1.69,1.69,0,0,1,1-.27,2.05,2.05,0,0,1,.7.11,1.21,1.21,0,0,1,.52.29,1.06,1.06,0,0,1,.25.45,1.57,1.57,0,0,1,0,.37v9.24a.92.92,0,0,1,0,.28,1.12,1.12,0,0,1-.15.38,1.19,1.19,0,0,1-.39.35,1.44,1.44,0,0,1-.64.13,1.36,1.36,0,0,1-.85-.26,1.11,1.11,0,0,1-.39-.89Zm13.67,4.73c0,.09,0,.18,0,.28a1.17,1.17,0,0,1-.17.38,1,1,0,0,1-.39.37,1.35,1.35,0,0,1-.66.14,1.23,1.23,0,0,1-.84-.29,1.06,1.06,0,0,1-.38-.88v-9.23a1,1,0,0,1,0-.29,1,1,0,0,1,.16-.41,1.17,1.17,0,0,1,.4-.34,1.41,1.41,0,0,1,.63-.14,1.48,1.48,0,0,1,.66.14,1.18,1.18,0,0,1,.39.38,1.05,1.05,0,0,1,.17.39,2,2,0,0,1,0,.27Zm11.28-1.2h4.54l.26,0a1,1,0,0,1,.42.16.94.94,0,0,1,.36.38,1.14,1.14,0,0,1,.13.57,1.11,1.11,0,0,1-.14.6,1.19,1.19,0,0,1-.33.37,1.49,1.49,0,0,1-.44.17l-.26,0h-5.81l-.33,0a1.23,1.23,0,0,1-.46-.18,1.07,1.07,0,0,1-.33-.41,1.29,1.29,0,0,1-.11-.57v-9.14a2.4,2.4,0,0,1,0-.28,1.07,1.07,0,0,1,.18-.41,1.08,1.08,0,0,1,.41-.35,1.44,1.44,0,0,1,.62-.13,1.53,1.53,0,0,1,.64.13,1.19,1.19,0,0,1,.4.34.85.85,0,0,1,.19.42,1.27,1.27,0,0,1,0,.28Zm15.4,0h4.53l.26,0a1.12,1.12,0,0,1,.43.16.86.86,0,0,1,.35.38,1.14,1.14,0,0,1,.13.57,1.12,1.12,0,0,1-.15.6.91.91,0,0,1-.33.37,1.3,1.3,0,0,1-.44.17l-.25,0h-5.81c-.12,0-.22,0-.34,0a1.14,1.14,0,0,1-.44-.18,1,1,0,0,1-.35-.41,1.44,1.44,0,0,1-.11-.57v-9.14a.87.87,0,0,1,0-.28,1.35,1.35,0,0,1,.16-.41,1.37,1.37,0,0,1,.41-.35,1.59,1.59,0,0,1,.64-.13,1.59,1.59,0,0,1,.64.13,1.26,1.26,0,0,1,.39.34,1,1,0,0,1,.2.42,2.4,2.4,0,0,1,0,.28Zm15.35,1.2c0,.09,0,.18,0,.28a1.37,1.37,0,0,1-.15.38,1.18,1.18,0,0,1-.4.37,1.32,1.32,0,0,1-.65.14,1.24,1.24,0,0,1-.85-.29,1.1,1.1,0,0,1-.39-.88v-9.23a1.12,1.12,0,0,1,0-.27,1,1,0,0,1,.18-.43,1.06,1.06,0,0,1,.39-.34,1.39,1.39,0,0,1,.64-.14,1.44,1.44,0,0,1,.65.14,1.32,1.32,0,0,1,.4.38,1.22,1.22,0,0,1,.15.39,2,2,0,0,1,0,.27Zm18.14-10.49a9,9,0,0,1,1.27.12,5.14,5.14,0,0,1,1.67.6,4.91,4.91,0,0,1,1.49,1.26,5.26,5.26,0,0,1,.8,1.45,6.4,6.4,0,0,1,.32,1.36c0,.34.06.68.06,1a7.46,7.46,0,0,1-.15,1.57,6.14,6.14,0,0,1-.67,1.72,5.18,5.18,0,0,1-1.15,1.37,5,5,0,0,1-1.62.93,5.85,5.85,0,0,1-2,.33,6.51,6.51,0,0,1-2.2-.36,4.82,4.82,0,0,1-1.82-1.15,4.92,4.92,0,0,1-1.21-1.84,6.6,6.6,0,0,1-.43-2.49,6.52,6.52,0,0,1,.44-2.48,5.53,5.53,0,0,1,1.21-1.86,5.34,5.34,0,0,1,1.81-1.14A6.22,6.22,0,0,1-1202.56-1248.33Zm14.91,11.58a1.23,1.23,0,0,1-.27,0,1.08,1.08,0,0,1-.44-.14,1.21,1.21,0,0,1-.38-.4,1.26,1.26,0,0,1-.16-.63v-9a1.26,1.26,0,0,1,.29-.85,1.27,1.27,0,0,1,1-.35h2.76l1.09,0a7.63,7.63,0,0,1,1.15.18,4.29,4.29,0,0,1,1.13.42,3.63,3.63,0,0,1,1,.79,3.87,3.87,0,0,1,.76,1,6.23,6.23,0,0,1,.43,1.08,5.73,5.73,0,0,1,.21,1.08,8.39,8.39,0,0,1,.06,1,7.54,7.54,0,0,1-.41,2.58,4.67,4.67,0,0,1-1.14,1.83,3.58,3.58,0,0,1-1.15.81,6,6,0,0,1-1.23.42,8,8,0,0,1-1.21.16c-.37,0-.72,0-1.06,0Zm44.53-5.82-2.15,5.25a1,1,0,0,1-.28.41,1.27,1.27,0,0,1-.88.24,1.25,1.25,0,0,1-.83-.24,1.18,1.18,0,0,1-.29-.41l-2.17-5.31.08,4.81a2.85,2.85,0,0,1,0,.29,1.17,1.17,0,0,1-.17.38,1,1,0,0,1-.39.35,1.31,1.31,0,0,1-.62.13,1.64,1.64,0,0,1-.61-.11,1,1,0,0,1-.43-.35,1.34,1.34,0,0,1-.16-.39,1.39,1.39,0,0,1,0-.27V-1247a1.55,1.55,0,0,1,0-.37,1.21,1.21,0,0,1,.29-.48c.23-.22.09-.09.33-.21a2,2,0,0,1,.87-.16,1.59,1.59,0,0,1,1,.25,1.31,1.31,0,0,1,.41.53l2.76,6.84,2.72-6.84a1.61,1.61,0,0,1,.39-.51,1.74,1.74,0,0,1,1-.27,2.13,2.13,0,0,1,.7.11,1.12,1.12,0,0,1,.51.29.88.88,0,0,1,.25.45,1.55,1.55,0,0,1,0,.37v9.24a.92.92,0,0,1,0,.28,1,1,0,0,1-.16.38,1.16,1.16,0,0,1-.38.35,1.44,1.44,0,0,1-.64.13,1.36,1.36,0,0,1-.85-.26,1,1,0,0,1-.39-.89Zm36.65-1.16,0,5.91a2.85,2.85,0,0,1,0,.29,1.43,1.43,0,0,1-.17.38,1.07,1.07,0,0,1-.38.35,1.44,1.44,0,0,1-.64.13,1.46,1.46,0,0,1-.65-.13,1,1,0,0,1-.39-.32,1,1,0,0,1-.19-.4c0-.1,0-.2,0-.29V-1247a1.32,1.32,0,0,1,0-.29.91.91,0,0,1,.23-.47,1.15,1.15,0,0,1,.74-.41,3.29,3.29,0,0,1,.44,0,1.34,1.34,0,0,1,.74.19,1.34,1.34,0,0,1,.38.37l4.52,6.47c0-.14,0-.3,0-.45l0-5.42a1.29,1.29,0,0,1,0-.29,1.09,1.09,0,0,1,.16-.38,1.07,1.07,0,0,1,.43-.36,1.63,1.63,0,0,1,.6-.11,1.33,1.33,0,0,1,.63.14,1,1,0,0,1,.38.33.93.93,0,0,1,.18.39,2.4,2.4,0,0,1,0,.28v9.29c0,.08,0,.19,0,.28a1.29,1.29,0,0,1-.2.41,1.22,1.22,0,0,1-.41.33,1.62,1.62,0,0,1-.7.13,1.5,1.5,0,0,1-.77-.17,1.2,1.2,0,0,1-.36-.35l-4.31-6.2C-1106.31-1243.49-1106.38-1243.61-1106.47-1243.73Zm20.7-4.6a9.09,9.09,0,0,1,1.27.12,5.06,5.06,0,0,1,1.67.6,4.91,4.91,0,0,1,1.49,1.26,5.26,5.26,0,0,1,.8,1.45,5.85,5.85,0,0,1,.32,1.36c0,.34.06.68.06,1a6.35,6.35,0,0,1-.17,1.57,5.8,5.8,0,0,1-.65,1.72,5.18,5.18,0,0,1-1.15,1.37,5.25,5.25,0,0,1-1.62.93,5.85,5.85,0,0,1-2,.33,6.51,6.51,0,0,1-2.2-.36,4.82,4.82,0,0,1-1.82-1.15A4.92,4.92,0,0,1-1091-1240a6.6,6.6,0,0,1-.43-2.49,6.52,6.52,0,0,1,.44-2.48,5.41,5.41,0,0,1,1.22-1.86,5.21,5.21,0,0,1,1.8-1.14A6.22,6.22,0,0,1-1085.77-1248.33Zm21.8,11h0a3.23,3.23,0,0,1-.7.34,9,9,0,0,1-1,.28,6.74,6.74,0,0,1-1.27.11,6,6,0,0,1-2.29-.41,5.32,5.32,0,0,1-1.79-1.18,5.53,5.53,0,0,1-1.14-1.86,7.15,7.15,0,0,1-.38-2.38,8.35,8.35,0,0,1,.14-1.49,5.66,5.66,0,0,1,.51-1.5,5.41,5.41,0,0,1,.73-1.06,5.24,5.24,0,0,1,1.06-.93,5.34,5.34,0,0,1,1.41-.66,6.07,6.07,0,0,1,1.75-.25,6.08,6.08,0,0,1,2.27.41,4.85,4.85,0,0,1,1.79,1.19,5.16,5.16,0,0,1,1.16,1.86,7.19,7.19,0,0,1,.39,2.43c0,.28,0,.56,0,.84a5.58,5.58,0,0,1-.17.89,5.39,5.39,0,0,1-.56,1.42l-.21.32.71.71a1.22,1.22,0,0,1,.24.32,1,1,0,0,1,.11.47,1.21,1.21,0,0,1-.36.82,1.27,1.27,0,0,1-.85.35.87.87,0,0,1-.53-.15.91.91,0,0,1-.29-.19Zm13-8.57h-2.44a1.1,1.1,0,0,1-.41-.16,1,1,0,0,1-.35-.37,1.33,1.33,0,0,1-.12-.59,1.15,1.15,0,0,1,.13-.58,1,1,0,0,1,.34-.35.91.91,0,0,1,.42-.17l.24,0h6.83a1.18,1.18,0,0,1,.55.11,1.54,1.54,0,0,1,.38.34,1,1,0,0,1,.21.69,1.06,1.06,0,0,1-.14.58,1.27,1.27,0,0,1-.33.36,1.19,1.19,0,0,1-.43.16h-2.39v8.07a2.66,2.66,0,0,1,0,.28.91.91,0,0,1-.19.41,1.08,1.08,0,0,1-.41.35,1.35,1.35,0,0,1-.63.13,1.33,1.33,0,0,1-.62-.13,1,1,0,0,1-.43-.36,1.49,1.49,0,0,1-.15-.4,1.41,1.41,0,0,1,0-.28Zm36.58,2.21a10.37,10.37,0,0,1,1,.31,4.43,4.43,0,0,1,1.11.6,3.35,3.35,0,0,1,.88,1,3.23,3.23,0,0,1,.36,1.59,3.27,3.27,0,0,1-.44,1.72,3.37,3.37,0,0,1-1.11,1.11,5.34,5.34,0,0,1-1.45.57,7.47,7.47,0,0,1-1.49.16,6.5,6.5,0,0,1-1.7-.22,4.05,4.05,0,0,1-1.55-.71,3.41,3.41,0,0,1-.71-.71,5.65,5.65,0,0,1-.42-.72,3.22,3.22,0,0,1-.22-.64,1.68,1.68,0,0,1-.07-.44,1.12,1.12,0,0,1,.2-.66,1.29,1.29,0,0,1,.41-.35,1.52,1.52,0,0,1,.44-.15,1.32,1.32,0,0,1,.34,0,1.09,1.09,0,0,1,.87.32,1.24,1.24,0,0,1,.24.47c.08.25.17.48.26.72a1.16,1.16,0,0,0,.47.51,1.53,1.53,0,0,0,.79.32,4.23,4.23,0,0,0,.79.08h.33l.36-.05.41-.11a.79.79,0,0,0,.31-.17,1.1,1.1,0,0,0,.33-.38,1.07,1.07,0,0,0,.12-.49,1,1,0,0,0-.1-.46,2.07,2.07,0,0,0-.28-.32,2.24,2.24,0,0,0-.65-.34c-.35-.13-.71-.23-1.08-.34l-1.13-.3c-.23-.06-.44-.13-.67-.21a5.19,5.19,0,0,1-.62-.23,2.63,2.63,0,0,1-.41-.21,2.47,2.47,0,0,1-.58-.48,3,3,0,0,1-.47-.79,3.06,3.06,0,0,1-.21-1.16,3.66,3.66,0,0,1,.26-1.36,2.87,2.87,0,0,1,.82-1.13,3.83,3.83,0,0,1,1.33-.72,6.22,6.22,0,0,1,1.78-.25l.63,0a5.39,5.39,0,0,1,.79.12,4.92,4.92,0,0,1,.85.26,3.67,3.67,0,0,1,.82.52,2.63,2.63,0,0,1,.5.5,4,4,0,0,1,.38.54,3.39,3.39,0,0,1,.24.55,1.52,1.52,0,0,1,.11.53,1.13,1.13,0,0,1-.44.91,1.45,1.45,0,0,1-.85.26,1.61,1.61,0,0,1-.43-.07,1,1,0,0,1-.48-.4c-.06-.08-.11-.19-.17-.29l-.13-.26a2.46,2.46,0,0,0-.19-.32,1.33,1.33,0,0,0-.28-.3,3.06,3.06,0,0,0-.54-.28,3.22,3.22,0,0,0-.88-.11,3.82,3.82,0,0,0-.68.07,1.12,1.12,0,0,0-.47.21,1.12,1.12,0,0,0-.32.33.94.94,0,0,0-.1.5.8.8,0,0,0,0,.31l.14.16a1.51,1.51,0,0,0,.48.22c.25.09.51.16.76.23Zm14,5.86a1.41,1.41,0,0,1,0,.28,1.77,1.77,0,0,1-.15.38,1.22,1.22,0,0,1-.41.37,1.32,1.32,0,0,1-.65.14,1.27,1.27,0,0,1-.85-.29,1.09,1.09,0,0,1-.38-.88v-9.23a2.85,2.85,0,0,1,0-.29,1.07,1.07,0,0,1,.18-.41.89.89,0,0,1,.4-.34,1.31,1.31,0,0,1,.62-.14,1.44,1.44,0,0,1,.65.14,1.36,1.36,0,0,1,.41.38,1.51,1.51,0,0,1,.15.39,1.12,1.12,0,0,1,0,.27Zm-200-13.46a1.3,1.3,0,0,1,1.32,1.27,1.3,1.3,0,0,1-1.32,1.26,1.29,1.29,0,0,1-1.31-1.26A1.29,1.29,0,0,1-1200.48-1251.3Zm-4.17,0a1.3,1.3,0,0,1,1.32,1.27,1.3,1.3,0,0,1-1.32,1.26A1.29,1.29,0,0,1-1206-1250,1.3,1.3,0,0,1-1204.65-1251.3Zm121,0a1.3,1.3,0,0,1,1.32,1.27,1.29,1.29,0,0,1-1.32,1.26A1.29,1.29,0,0,1-1085-1250,1.3,1.3,0,0,1-1083.69-1251.3Zm-4.17,0a1.28,1.28,0,0,1,1.3,1.27,1.28,1.28,0,0,1-1.3,1.26,1.29,1.29,0,0,1-1.32-1.26A1.3,1.3,0,0,1-1087.86-1251.3Z"/></clipPath><clipPath id="clip-path-57" transform="translate(1735.36 2418.3)"><path class="cls-5" d="M180.11,82.45c0-1.15,1.17-1.72,2.49-1l6.45,3.32a3,3,0,0,1,1.56,2.57V133a5.28,5.28,0,0,1-10.54,0Q180.07,107.73,180.11,82.45Z"/></clipPath><clipPath id="clip-path-58" transform="translate(1735.36 2418.3)"><rect class="cls-6" x="-401.37" y="-1013.88" width="3840" height="5031"/></clipPath><clipPath id="clip-path-59" transform="translate(1735.36 2418.3)"><path class="cls-5" d="M169.4,82.45c0-1.15-1.15-1.72-2.48-1l-6.44,3.32a3,3,0,0,0-1.56,2.57V133a5.28,5.28,0,0,0,10.54,0C169.46,116.14,169.4,99.3,169.4,82.45Z"/></clipPath><clipPath id="clip-path-61" transform="translate(1735.36 2418.3)"><path class="cls-5" d="M275.16,98.18l.45.72a24.35,24.35,0,0,1,3.72,13,25,25,0,0,1-3.73,13.17,26.19,26.19,0,0,1-10.18,9.57,29.73,29.73,0,0,1-14.22,3.46,27.35,27.35,0,0,1-19.47-7.62,25.28,25.28,0,0,1-4-32.34,6.67,6.67,0,0,1,5.37-2.65,6.29,6.29,0,0,1,6.49,6.06,5.68,5.68,0,0,1-.81,2.92,14.71,14.71,0,0,0-1.88,7.48,13.87,13.87,0,0,0,14.4,14.54,14.25,14.25,0,0,0,10.39-4.08A14,14,0,0,0,265.84,112a15.25,15.25,0,0,0-1.86-7.64,6,6,0,0,1-.67-2.73,6.29,6.29,0,0,1,6.49-6.06A6.64,6.64,0,0,1,275.16,98.18Z"/></clipPath><clipPath id="clip-path-63" transform="translate(1735.36 2418.3)"><path class="cls-5" d="M333.63,131.4V105.05c0-5.73-1.61-10-4.87-13a20.36,20.36,0,0,0-14.08-5.18,23,23,0,0,0-7.89,1.4,32.78,32.78,0,0,0-8.63,5,7,7,0,0,0-13.91.09v38a7,7,0,0,0,13.91,0V117.94c0-5.17.21-8.54.61-10.1a13.13,13.13,0,0,1,4.23-7,10.94,10.94,0,0,1,7.3-2.55,9.4,9.4,0,0,1,5.49,1.54,8,8,0,0,1,3.12,4.46c.59,1.94.9,5.89.9,11.83V131.4a6.92,6.92,0,0,0,13.82,0Z"/></clipPath><clipPath id="clip-path-65" transform="translate(1735.36 2418.3)"><path class="cls-5" d="M259.72,84.54a6.26,6.26,0,0,1,4.46,1.75,5.61,5.61,0,0,1,0,8.29,6.3,6.3,0,0,1-4.46,1.75,6.22,6.22,0,0,1-4.43-1.75,5.41,5.41,0,0,1-1.86-4.12,5.49,5.49,0,0,1,1.86-4.17A6.18,6.18,0,0,1,259.72,84.54Z"/></clipPath><clipPath id="clip-path-67" transform="translate(1735.36 2418.3)"><path class="cls-5" d="M243.22,84.54a6.23,6.23,0,0,1,4.46,1.75,5.59,5.59,0,0,1,0,8.29,6.52,6.52,0,0,1-8.89,0,5.44,5.44,0,0,1-1.85-4.12,5.51,5.51,0,0,1,1.85-4.17A6.21,6.21,0,0,1,243.22,84.54Z"/></clipPath><clipPath id="clip-path-69" transform="translate(1735.36 2418.3)"><path class="cls-5" d="M143,81.24a7,7,0,0,0-5,1.94,6.11,6.11,0,0,0-2.06,4.68,6.5,6.5,0,0,0,2.11,4.91,7,7,0,0,0,5.06,2,6.89,6.89,0,0,0,4.95-2,6.19,6.19,0,0,0,2.06-4.74A6.39,6.39,0,0,0,148,83.22,7.06,7.06,0,0,0,143,81.24Z"/></clipPath><clipPath id="clip-path-71" transform="translate(1735.36 2418.3)"><path class="cls-5" d="M148.27,133V106.65a5.28,5.28,0,0,0-10.54,0V133a5.28,5.28,0,0,0,10.54,0Z"/></clipPath><clipPath id="clip-path-73" transform="translate(1735.36 2418.3)"><path class="cls-5" d="M59.17,94.5a5.28,5.28,0,0,0-10.54,0V133a5.28,5.28,0,0,0,10.54,0V117.12c0-3.43.15-7.76,1.44-11a12.57,12.57,0,0,1,4.54-5.78A11.93,11.93,0,0,1,72,98.25,10.13,10.13,0,0,1,77.92,100a9.93,9.93,0,0,1,3.64,5.1c1,3,1.13,7,1.13,10.09V133a5.31,5.31,0,0,0,10.59,0V116.8c0-3.33.13-7.7,1.41-10.82a12.14,12.14,0,0,1,11.48-7.73,9.35,9.35,0,0,1,7.89,3.55c2.26,3,2.5,8.61,2.5,12.22v19a5.29,5.29,0,0,0,10.55,0c0-7.63,0-15.26,0-22.89,0-3.66-.16-9-1.76-12.38a13.38,13.38,0,0,0-5.61-5.86,18.21,18.21,0,0,0-9.22-2.29,20.82,20.82,0,0,0-9.41,2.15,19.67,19.67,0,0,0-7.28,6.24l-1.32,1.84-1.11-2a15.64,15.64,0,0,0-5.93-6.15,16.21,16.21,0,0,0-8.24-2.11,22.08,22.08,0,0,0-8.51,1.64,21.3,21.3,0,0,0-7.13,4.93l-2.46,2.56Z"/></clipPath><clipPath id="clip-path-75" transform="translate(1735.36 2418.3)"><path class="cls-5" d="M211.75,133V106.65a5.29,5.29,0,0,0-10.55,0V133a5.29,5.29,0,0,0,10.55,0Z"/></clipPath><clipPath id="clip-path-77" transform="translate(1735.36 2418.3)"><path class="cls-5" d="M206.48,81.24a7,7,0,0,0-5,1.94,6.14,6.14,0,0,0-2.06,4.68,6.5,6.5,0,0,0,2.11,4.91,7.05,7.05,0,0,0,5.07,2,6.88,6.88,0,0,0,4.94-2,6.19,6.19,0,0,0,2.07-4.74,6.39,6.39,0,0,0-2.08-4.83A7.08,7.08,0,0,0,206.48,81.24Z"/></clipPath><clipPath id="clip-path-79" transform="translate(1735.36 2418.3)"><path class="cls-5" d="M303.69,163h-5.9a3.5,3.5,0,0,0,.13.56,3.46,3.46,0,0,0,.63,1.14,2.4,2.4,0,0,0,.94.69,3.22,3.22,0,0,0,1.24.23,2.8,2.8,0,0,0,1.42-.32,2.93,2.93,0,0,0,1-.87,3.48,3.48,0,0,0,.54-1.21Zm-93.8,0H204c.05.19.1.38.16.56a3.26,3.26,0,0,0,.62,1.14,2.47,2.47,0,0,0,.94.69,3.2,3.2,0,0,0,1.23.23,2.85,2.85,0,0,0,1.44-.32,2.8,2.8,0,0,0,.94-.87,3.46,3.46,0,0,0,.53-1.21C209.84,163.11,209.88,163,209.89,163Zm-38.72,0h-5.9a3.34,3.34,0,0,0,.77,1.7,2.44,2.44,0,0,0,.93.69,3.25,3.25,0,0,0,1.24.23,2.87,2.87,0,0,0,1.44-.32,2.8,2.8,0,0,0,.94-.87,3.66,3.66,0,0,0,.53-1.21C171.14,163.11,171.15,163,171.17,163Zm-36.69-1.13a4.31,4.31,0,0,0-.25-1.55,3.26,3.26,0,0,0-.66-1.1,2.61,2.61,0,0,0-1-.64,2.92,2.92,0,0,0-1.2-.24,2.82,2.82,0,0,0-1.21.25,2.87,2.87,0,0,0-1,.67,3.31,3.31,0,0,0-.63,1.13,4.22,4.22,0,0,0-.25,1.54,5.35,5.35,0,0,0,.23,1.63,3.67,3.67,0,0,0,.64,1.14,2.48,2.48,0,0,0,.92.69,3.34,3.34,0,0,0,1.25.23,2.87,2.87,0,0,0,1.44-.32,2.8,2.8,0,0,0,.94-.87,3.88,3.88,0,0,0,.53-1.21A5.55,5.55,0,0,0,134.48,161.83Zm13.1,3.59h.56c.47,0,.93,0,1.4,0a4.58,4.58,0,0,0,1-.15,2.05,2.05,0,0,0,.75-.35,2.73,2.73,0,0,0,.86-1.24c.06-.22.12-.44.17-.66s.06-.41.08-.62,0-.35,0-.52a7,7,0,0,0-.11-1.12,3.69,3.69,0,0,0-.38-1,2,2,0,0,0-.5-.6,2.43,2.43,0,0,0-.59-.37,3.22,3.22,0,0,0-.61-.16l-.67-.09h-2Zm103.69-3.59a4.11,4.11,0,0,0-.26-1.55,3.41,3.41,0,0,0-.65-1.1,2.7,2.7,0,0,0-1-.64,2.92,2.92,0,0,0-1.2-.24,2.82,2.82,0,0,0-1.21.25,2.87,2.87,0,0,0-1,.67,3.31,3.31,0,0,0-.63,1.13,4.44,4.44,0,0,0-.25,1.54,5.68,5.68,0,0,0,.23,1.63,3.48,3.48,0,0,0,.64,1.14,2.48,2.48,0,0,0,.92.69,3.34,3.34,0,0,0,1.25.23,2.87,2.87,0,0,0,1.44-.32,2.8,2.8,0,0,0,.94-.87,3.88,3.88,0,0,0,.53-1.21A5.55,5.55,0,0,0,251.27,161.83Zm18.58,1.79c.06-.16.1-.31.15-.47a5.19,5.19,0,0,0,.15-1.3,4.47,4.47,0,0,0-.24-1.54,3.21,3.21,0,0,0-.64-1.1,2.61,2.61,0,0,0-.95-.67,2.94,2.94,0,0,0-1.23-.25,3.23,3.23,0,0,0-1.19.23,2.88,2.88,0,0,0-.95.67,3.75,3.75,0,0,0-.65,1.15A4.42,4.42,0,0,0,264,162a5.24,5.24,0,0,0,.21,1.51,3,3,0,0,0,.59,1.14,2.67,2.67,0,0,0,1,.73,3,3,0,0,0,1.3.27,2.38,2.38,0,0,0,1-.17c.06,0,.1,0,.17-.05l-.25-.24a.92.92,0,0,1-.29-.66,1,1,0,0,1,.13-.48,1.83,1.83,0,0,1,.25-.35,1.9,1.9,0,0,1,.4-.3,1.23,1.23,0,0,1,.54-.13c.28,0,.1,0,.37.08l.24.13.05,0Zm62.46-10.5a1.27,1.27,0,1,1-1.31,1.27A1.3,1.3,0,0,1,332.31,153.12Zm-220.25,0a1.27,1.27,0,1,1,0,2.53,1.27,1.27,0,1,1,0-2.53Zm-42,0a1.27,1.27,0,1,1-1.32,1.27A1.3,1.3,0,0,1,70,153.12Zm233.68,7.61a2.89,2.89,0,0,0-.14-.45,3.41,3.41,0,0,0-.65-1.1,2.61,2.61,0,0,0-1-.64,2.92,2.92,0,0,0-1.2-.24,2.79,2.79,0,0,0-1.21.25,2.57,2.57,0,0,0-.95.67,1.22,1.22,0,0,1-.31.25.93.93,0,0,1-.38.16,1.1,1.1,0,0,1-.54,0,1.2,1.2,0,0,1-.56-.34,1.11,1.11,0,0,1-.32-.51,1,1,0,0,1,0-.73,1.24,1.24,0,0,1,.29-.41,5.38,5.38,0,0,1,1.8-1.15,6.13,6.13,0,0,1,2.17-.39,9.09,9.09,0,0,1,1.27.12,4.84,4.84,0,0,1,1.67.6,4.77,4.77,0,0,1,1.49,1.26,5.38,5.38,0,0,1,.79,1.45,5.3,5.3,0,0,1,.33,1.36c0,.34.06.67.06,1a6.4,6.4,0,0,1-.17,1.57,5.92,5.92,0,0,1-.65,1.71,5.83,5.83,0,0,1-1.15,1.38,5,5,0,0,1-1.62.92,5.67,5.67,0,0,1-2,.34,6.62,6.62,0,0,1-2.21-.37,4.93,4.93,0,0,1-1.82-1.14,5.06,5.06,0,0,1-1.2-1.85,6.61,6.61,0,0,1-.44-2.49v-.1a1,1,0,0,1,.51-1,1.11,1.11,0,0,1,.37-.15l.27,0Zm-93.8,0a2.89,2.89,0,0,0-.14-.45,3.26,3.26,0,0,0-.66-1.1,2.54,2.54,0,0,0-.94-.64,3,3,0,0,0-1.22-.24,2.78,2.78,0,0,0-1.2.25,2.57,2.57,0,0,0-.95.67,1,1,0,0,1-.3.25,1.06,1.06,0,0,1-.38.16,1.14,1.14,0,0,1-.55,0,1.15,1.15,0,0,1-.56-.34,1.19,1.19,0,0,1-.32-.51,1,1,0,0,1,0-.73,1.66,1.66,0,0,1,.3-.41,5.44,5.44,0,0,1,1.79-1.15,6.17,6.17,0,0,1,2.17-.39,9.23,9.23,0,0,1,1.29.12,5,5,0,0,1,3.94,3.31,5.28,5.28,0,0,1,.32,1.36,8.57,8.57,0,0,1,.07,1,8.28,8.28,0,0,1-.16,1.57,6,6,0,0,1-.67,1.71,5.39,5.39,0,0,1-1.15,1.38,4.78,4.78,0,0,1-1.61.92,5.68,5.68,0,0,1-2,.34,6.6,6.6,0,0,1-2.2-.37A5,5,0,0,1,203,166.3a5.19,5.19,0,0,1-1.2-1.85,6.61,6.61,0,0,1-.44-2.49v-.1a1,1,0,0,1,.5-1,1.26,1.26,0,0,1,.38-.15l.27,0Zm-38.72,0a2.89,2.89,0,0,0-.14-.45,3.41,3.41,0,0,0-.65-1.1,2.61,2.61,0,0,0-1-.64,2.92,2.92,0,0,0-1.2-.24,2.79,2.79,0,0,0-1.21.25,2.74,2.74,0,0,0-.95.67,1.61,1.61,0,0,1-.29.25,1.16,1.16,0,0,1-.4.16,1.1,1.1,0,0,1-.54,0,1.25,1.25,0,0,1-.56-.34,1.11,1.11,0,0,1-.32-.51,1,1,0,0,1,0-.73,1.4,1.4,0,0,1,.29-.41,5.38,5.38,0,0,1,1.8-1.15,6.21,6.21,0,0,1,2.17-.39,9.09,9.09,0,0,1,1.27.12,4.84,4.84,0,0,1,1.67.6,4.77,4.77,0,0,1,1.49,1.26,5.61,5.61,0,0,1,1.12,2.81c0,.34.06.67.06,1a6.92,6.92,0,0,1-.16,1.57,5.94,5.94,0,0,1-.66,1.71,5.6,5.6,0,0,1-1.15,1.38,5,5,0,0,1-1.62.92,5.63,5.63,0,0,1-2,.34,6.52,6.52,0,0,1-2.2-.37,5.08,5.08,0,0,1-3-3,6.6,6.6,0,0,1-.43-2.49v-.1a1,1,0,0,1,.5-1,1.31,1.31,0,0,1,.37-.15l.27,0ZM57.59,161.85l-2.15,5.24a1.13,1.13,0,0,1-.27.41,1.25,1.25,0,0,1-.88.25,1.13,1.13,0,0,1-.82-.25,1,1,0,0,1-.31-.41L51,161.8l.08,4.79c0,.1,0,.19,0,.3a1.17,1.17,0,0,1-.17.38,1,1,0,0,1-.39.35,1.27,1.27,0,0,1-.61.13,1.49,1.49,0,0,1-.62-.12.9.9,0,0,1-.42-.35,1.17,1.17,0,0,1-.17-.38,1.41,1.41,0,0,1,0-.28v-9.26a1.47,1.47,0,0,1,0-.36,1.3,1.3,0,0,1,.29-.49c.23-.22.11-.08.34-.2a1.89,1.89,0,0,1,.86-.16,1.69,1.69,0,0,1,1,.25,1.58,1.58,0,0,1,.4.52l2.76,6.84,2.71-6.84a1.61,1.61,0,0,1,.4-.51,1.69,1.69,0,0,1,1-.26,2.32,2.32,0,0,1,.7.1,1.32,1.32,0,0,1,.52.29A1.16,1.16,0,0,1,60,157a1.49,1.49,0,0,1,.05.36v9.25a1,1,0,0,1-.05.28,1.12,1.12,0,0,1-.15.38,1.31,1.31,0,0,1-.39.35,1.44,1.44,0,0,1-.64.13,1.36,1.36,0,0,1-.85-.26,1.13,1.13,0,0,1-.39-.9Zm13.67,4.73c0,.09,0,.17,0,.28a1.17,1.17,0,0,1-.17.38,1,1,0,0,1-.39.36,1.26,1.26,0,0,1-.66.15,1.33,1.33,0,0,1-.85-.29,1.1,1.1,0,0,1-.37-.88v-9.23a1,1,0,0,1,0-.29,1,1,0,0,1,.16-.41,1.07,1.07,0,0,1,.4-.34,1.39,1.39,0,0,1,.63-.15,1.49,1.49,0,0,1,.66.15,1.09,1.09,0,0,1,.39.38,1,1,0,0,1,.17.38,2.4,2.4,0,0,1,0,.28Zm11.28-1.2h4.8a1.09,1.09,0,0,1,.78.54,1.16,1.16,0,0,1,.13.57,1.09,1.09,0,0,1-.14.6,1.19,1.19,0,0,1-.33.37,1.28,1.28,0,0,1-.44.18H81.27a2,2,0,0,1-.34,0,1.44,1.44,0,0,1-.45-.17,1.07,1.07,0,0,1-.33-.41,1.3,1.3,0,0,1-.11-.58v-9.14a2,2,0,0,1,0-.27,1.07,1.07,0,0,1,.18-.41,1.1,1.1,0,0,1,.41-.36,1.6,1.6,0,0,1,.62-.13,1.7,1.7,0,0,1,.64.13,1.19,1.19,0,0,1,.4.34.89.89,0,0,1,.19.43,1.12,1.12,0,0,1,0,.27Zm15.4,0h4.79a1.12,1.12,0,0,1,.43.16.84.84,0,0,1,.34.38,1.07,1.07,0,0,1,.14.57,1.09,1.09,0,0,1-.15.6.91.91,0,0,1-.33.37,1.14,1.14,0,0,1-.44.18H96.66a2.16,2.16,0,0,1-.35,0,1.33,1.33,0,0,1-.43-.17,1,1,0,0,1-.35-.41,1.46,1.46,0,0,1-.11-.58v-9.14a.76.76,0,0,1,0-.27,1.25,1.25,0,0,1,.16-.41,1.4,1.4,0,0,1,.41-.36,1.64,1.64,0,0,1,1.28,0,1.26,1.26,0,0,1,.39.34,1,1,0,0,1,.2.43,2,2,0,0,1,0,.27Zm15.35,1.2c0,.09,0,.17,0,.28a1,1,0,0,1-.55.74,1.22,1.22,0,0,1-.65.15,1.29,1.29,0,0,1-.85-.29,1.11,1.11,0,0,1-.39-.88v-9.23a1.27,1.27,0,0,1,0-.28,1.05,1.05,0,0,1,.18-.42,1,1,0,0,1,.39-.34,1.4,1.4,0,0,1,.64-.15,1.44,1.44,0,0,1,.65.15,1.32,1.32,0,0,1,.4.38,1.16,1.16,0,0,1,.15.38,2.4,2.4,0,0,1,0,.28Zm18.14-10.49a9,9,0,0,1,1.27.12,5,5,0,0,1,1.67.6,4.77,4.77,0,0,1,1.49,1.26,5.26,5.26,0,0,1,.8,1.45,6.26,6.26,0,0,1,.32,1.36c0,.34.06.67.06,1a8.27,8.27,0,0,1-.15,1.57,6,6,0,0,1-.67,1.71,5.39,5.39,0,0,1-1.15,1.38,4.83,4.83,0,0,1-1.62.92,5.63,5.63,0,0,1-2,.34,6.52,6.52,0,0,1-2.2-.37,4.85,4.85,0,0,1-1.82-1.14,5,5,0,0,1-1.21-1.85,6.6,6.6,0,0,1-.43-2.49,6.44,6.44,0,0,1,.44-2.47,5.14,5.14,0,0,1,3-3A6.17,6.17,0,0,1,131.43,156.09Zm14.91,11.57h-.28a1.43,1.43,0,0,1-.44-.15,1.1,1.1,0,0,1-.37-.4,1.26,1.26,0,0,1-.16-.63v-9a1.24,1.24,0,0,1,.29-.85,1.22,1.22,0,0,1,1-.35h2.76l1.09,0a7.63,7.63,0,0,1,1.15.18,4.7,4.7,0,0,1,1.13.43,3.46,3.46,0,0,1,1,.79,3.83,3.83,0,0,1,.76,1,6.33,6.33,0,0,1,.43,1.09,5.58,5.58,0,0,1,.21,1.08,8.39,8.39,0,0,1,.06,1,7.52,7.52,0,0,1-.41,2.57,4.64,4.64,0,0,1-1.14,1.84,3.71,3.71,0,0,1-1.15.8,6.91,6.91,0,0,1-1.23.43,9.52,9.52,0,0,1-1.21.16h-3.49Zm44.53-5.81-2.15,5.24a1.15,1.15,0,0,1-.28.41,1.22,1.22,0,0,1-.88.25,1.2,1.2,0,0,1-.83-.25,1.18,1.18,0,0,1-.29-.41l-2.17-5.3.08,4.8c0,.1,0,.19,0,.3a1.17,1.17,0,0,1-.17.38,1.11,1.11,0,0,1-.39.35,1.32,1.32,0,0,1-.63.13,1.43,1.43,0,0,1-.6-.12,1,1,0,0,1-.43-.35,1.19,1.19,0,0,1-.19-.66v-9.26a1.47,1.47,0,0,1,0-.36,1.18,1.18,0,0,1,.29-.49c.23-.22.09-.08.33-.2a2,2,0,0,1,.87-.16,1.59,1.59,0,0,1,1,.25,1.28,1.28,0,0,1,.41.52l2.76,6.84,2.72-6.84a1.31,1.31,0,0,1,1.44-.77,2.42,2.42,0,0,1,.7.1,1.22,1.22,0,0,1,.51.29,1,1,0,0,1,.25.46,1.47,1.47,0,0,1,0,.36v9.25a1,1,0,0,1,0,.28.86.86,0,0,1-.17.38,1.13,1.13,0,0,1-.37.35,1.44,1.44,0,0,1-.64.13,1.34,1.34,0,0,1-.85-.26,1.08,1.08,0,0,1-.4-.9Zm36.65-1.16,0,5.9c0,.1,0,.19,0,.3a1.84,1.84,0,0,1-.17.38,1.16,1.16,0,0,1-.38.35,1.67,1.67,0,0,1-1.29,0,1.12,1.12,0,0,1-.39-.32.87.87,0,0,1-.19-.4c0-.1,0-.21,0-.29v-9.25a1.37,1.37,0,0,1,0-.29.84.84,0,0,1,.23-.47,1.19,1.19,0,0,1,.74-.41c.15,0,.29,0,.44,0a1.26,1.26,0,0,1,.74.19,1.31,1.31,0,0,1,.38.36l4.52,6.48c0-.15,0-.31,0-.46l0-5.42a1.36,1.36,0,0,1,0-.29,1.28,1.28,0,0,1,.16-.38,1.13,1.13,0,0,1,.43-.35,1.43,1.43,0,0,1,.6-.12,1.33,1.33,0,0,1,.63.15.9.9,0,0,1,.38.32,1,1,0,0,1,.18.4,2,2,0,0,1,0,.27v9.29a2.66,2.66,0,0,1,0,.28,1.12,1.12,0,0,1-.2.41,1.14,1.14,0,0,1-.41.34,1.62,1.62,0,0,1-.7.13,1.41,1.41,0,0,1-.77-.18,1,1,0,0,1-.36-.35L227.76,161Zm20.7-4.6a9.09,9.09,0,0,1,1.27.12,4.92,4.92,0,0,1,1.67.6,4.77,4.77,0,0,1,1.49,1.26,5.26,5.26,0,0,1,.8,1.45,6.26,6.26,0,0,1,.32,1.36c0,.34.06.67.06,1a6.4,6.4,0,0,1-.17,1.57,5.65,5.65,0,0,1-.65,1.71,5.39,5.39,0,0,1-1.15,1.38,5,5,0,0,1-1.62.92,5.63,5.63,0,0,1-2,.34,6.52,6.52,0,0,1-2.2-.37,5.08,5.08,0,0,1-3-3,6.6,6.6,0,0,1-.43-2.49,6.44,6.44,0,0,1,.44-2.47,5.27,5.27,0,0,1,1.22-1.86,5.38,5.38,0,0,1,1.8-1.15A6.21,6.21,0,0,1,248.22,156.09Zm21.79,11h0a3.37,3.37,0,0,1-.69.33,5.92,5.92,0,0,1-1,.28,6,6,0,0,1-1.27.12,6.15,6.15,0,0,1-2.29-.41,5.25,5.25,0,0,1-1.79-1.19,5.34,5.34,0,0,1-1.14-1.86,7.09,7.09,0,0,1-.38-2.37,8.46,8.46,0,0,1,.14-1.5,5.48,5.48,0,0,1,.51-1.49,5.79,5.79,0,0,1,.73-1.07,5.2,5.2,0,0,1,1.06-.92,4.77,4.77,0,0,1,1.41-.66,5.74,5.74,0,0,1,1.75-.25,6.12,6.12,0,0,1,2.27.41,4.73,4.73,0,0,1,1.79,1.19,5.08,5.08,0,0,1,1.16,1.86,7.15,7.15,0,0,1,.39,2.43c0,.28,0,.55,0,.83a5.7,5.7,0,0,1-.17.9,5.39,5.39,0,0,1-.56,1.42l-.21.32.71.7a1.67,1.67,0,0,1,.24.32,1,1,0,0,1,.11.47,1.19,1.19,0,0,1-.36.82,1.28,1.28,0,0,1-.85.36.94.94,0,0,1-.53-.15,1.12,1.12,0,0,1-.29-.19Zm13-8.57h-2.19a1.06,1.06,0,0,1-.25,0,.84.84,0,0,1-.41-.16,1,1,0,0,1-.35-.37,1.31,1.31,0,0,1-.12-.58,1.19,1.19,0,0,1,.13-.59,1.14,1.14,0,0,1,.34-.35.8.8,0,0,1,.42-.16,1.05,1.05,0,0,1,.24,0h6.83a1.19,1.19,0,0,1,.55.12,1.31,1.31,0,0,1,.37.33,1,1,0,0,1,.22.69,1.1,1.1,0,0,1-.14.59,1.37,1.37,0,0,1-.33.35.91.91,0,0,1-.43.16,1,1,0,0,1-.24,0h-2.15v8.07a2.66,2.66,0,0,1,0,.28,1.09,1.09,0,0,1-.19.41,1.18,1.18,0,0,1-.41.35,1.35,1.35,0,0,1-.63.13,1.31,1.31,0,0,1-.62-.13,1,1,0,0,1-.43-.37,1.17,1.17,0,0,1-.15-.39,1.49,1.49,0,0,1,0-.28Zm36.58,2.21a10.37,10.37,0,0,1,1,.31,3.87,3.87,0,0,1,1.11.6,3.32,3.32,0,0,1,.88,1,3.63,3.63,0,0,1-.08,3.31,3.39,3.39,0,0,1-1.11,1.12,5.34,5.34,0,0,1-1.45.57,7.47,7.47,0,0,1-1.49.16,7,7,0,0,1-1.7-.22,4.07,4.07,0,0,1-1.55-.72,3.37,3.37,0,0,1-.71-.7,5.65,5.65,0,0,1-.42-.72,3.31,3.31,0,0,1-.22-.65,1.61,1.61,0,0,1-.07-.43,1.1,1.1,0,0,1,.2-.66,1.2,1.2,0,0,1,.41-.36,1.55,1.55,0,0,1,.43-.14,1.48,1.48,0,0,1,.35-.05,1.1,1.1,0,0,1,.87.33,1.11,1.11,0,0,1,.24.47c.08.24.17.48.26.71a1.13,1.13,0,0,0,.47.52,1.62,1.62,0,0,0,.79.32,5.27,5.27,0,0,0,.79.07h.33l.36,0c.14,0,.28-.08.41-.12a.92.92,0,0,0,.31-.16,1.33,1.33,0,0,0,.33-.38,1.08,1.08,0,0,0,.12-.5,1,1,0,0,0-.1-.45,1.75,1.75,0,0,0-.28-.33,2.21,2.21,0,0,0-.65-.33c-.35-.13-.71-.24-1.08-.34l-1.13-.31-.67-.2a5.27,5.27,0,0,1-.62-.24,3.91,3.91,0,0,1-.41-.2,2.51,2.51,0,0,1-.58-.49,2.95,2.95,0,0,1-.68-1.94,3.75,3.75,0,0,1,.26-1.37,2.77,2.77,0,0,1,.82-1.12,3.74,3.74,0,0,1,1.33-.72,5.87,5.87,0,0,1,1.77-.25c.22,0,.43,0,.64,0a4.31,4.31,0,0,1,.79.12,3.58,3.58,0,0,1,1.67.77,3.38,3.38,0,0,1,.5.5,4.8,4.8,0,0,1,.38.54,3.93,3.93,0,0,1,.24.56,1.52,1.52,0,0,1,.11.53,1.1,1.1,0,0,1-.44.9,1.39,1.39,0,0,1-.85.27,1.31,1.31,0,0,1-.43-.08,1.07,1.07,0,0,1-.48-.39c-.06-.09-.11-.19-.17-.29l-.14-.27a2,2,0,0,0-.18-.32,1.14,1.14,0,0,0-.29-.29,1.92,1.92,0,0,0-.53-.28,2.88,2.88,0,0,0-.88-.12,3.82,3.82,0,0,0-.68.07,1.44,1.44,0,0,0-.47.21,1.15,1.15,0,0,0-.32.34.92.92,0,0,0-.1.5.75.75,0,0,0,0,.3,1.14,1.14,0,0,0,.14.16,1.17,1.17,0,0,0,.48.22c.25.09.5.16.76.24Zm14,5.86a1.49,1.49,0,0,1,0,.28,1.77,1.77,0,0,1-.15.38,1.3,1.3,0,0,1-.41.36,1.22,1.22,0,0,1-.65.15,1.31,1.31,0,0,1-.85-.29,1.11,1.11,0,0,1-.38-.88v-9.23a1.43,1.43,0,0,1,0-.29,1.07,1.07,0,0,1,.18-.41.84.84,0,0,1,.4-.34,1.32,1.32,0,0,1,.62-.15,1.44,1.44,0,0,1,.65.15,1.24,1.24,0,0,1,.41.38,1.44,1.44,0,0,1,.15.38,1.27,1.27,0,0,1,0,.28Zm-200-13.46a1.27,1.27,0,1,1,0,2.53,1.27,1.27,0,1,1,0-2.53Zm-4.18,0a1.27,1.27,0,1,1-1.31,1.27A1.3,1.3,0,0,1,129.33,153.12Zm121,0a1.27,1.27,0,1,1-1.32,1.27A1.3,1.3,0,0,1,250.3,153.12Zm-4.17,0a1.27,1.27,0,1,1-1.32,1.27A1.28,1.28,0,0,1,246.13,153.12Z"/></clipPath></defs><title>Untitled-3</title><g class="cls-7"><g class="cls-8"><rect class="cls-6" x="523.29" y="1083.01" width="40.54" height="86.79"/></g></g><g class="cls-9"><g class="cls-8"><rect class="cls-6" x="500.31" y="1083.13" width="44.18" height="43.53"/></g></g><g class="cls-10"><g class="cls-8"><rect class="cls-6" x="502.1" y="1103.59" width="40.54" height="66.22"/></g></g><g class="cls-11"><g class="cls-8"><rect class="cls-6" x="413" y="1091.44" width="108.52" height="78.36"/></g></g><g class="cls-12"><g class="cls-13"><rect class="cls-6" x="581.44" y="1022.01" width="40.54" height="86.79"/></g></g><g class="cls-14"><g class="cls-13"><rect class="cls-6" x="560.29" y="1022.01" width="40.54" height="86.79"/></g></g><g class="cls-15"><g class="cls-13"><rect class="cls-6" x="625.01" y="1036.39" width="85.69" height="72.61"/></g></g><g class="cls-16"><g class="cls-13"><rect class="cls-6" x="685.62" y="1027.78" width="79.38" height="81.02"/></g></g><g class="cls-17"><g class="cls-13"><rect class="cls-6" x="654.81" y="1025.42" width="42.58" height="41.79"/></g></g><g class="cls-18"><g class="cls-13"><rect class="cls-6" x="638.32" y="1025.42" width="42.58" height="41.79"/></g></g><g class="cls-19"><g class="cls-13"><rect class="cls-6" x="537.31" y="1022.13" width="44.18" height="43.53"/></g></g><g class="cls-20"><g class="cls-13"><rect class="cls-6" x="539.1" y="1042.59" width="40.54" height="66.22"/></g></g><g class="cls-21"><g class="cls-13"><rect class="cls-6" x="450" y="1030.44" width="108.52" height="78.36"/></g></g><g class="cls-22"><g class="cls-13"><rect class="cls-6" x="602.57" y="1042.59" width="40.54" height="66.22"/></g></g><g class="cls-23"><g class="cls-13"><rect class="cls-6" x="600.78" y="1022.13" width="44.18" height="43.53"/></g></g><g class="cls-24"><g class="cls-13"><rect class="cls-6" x="450" y="1094" width="315" height="45"/></g></g><path class="cls-25" d="M-1153.88-1322c0-1.15,1.17-1.72,2.49-1l6.45,3.33a2.94,2.94,0,0,1,1.56,2.57v45.65a5.1,5.1,0,0,1-5.26,4.94,5.12,5.12,0,0,1-5.28-4.94Q-1153.92-1296.7-1153.88-1322Z" transform="translate(1735.36 2418.3)"/><g class="cls-26"><rect class="cls-4" width="3840" height="5031"/><g class="cls-27"><rect class="cls-4" x="566.44" y="1080.01" width="40.54" height="86.79"/></g></g><path class="cls-25" d="M-1164.59-1322c0-1.15-1.15-1.72-2.48-1l-6.44,3.33a2.94,2.94,0,0,0-1.56,2.57v45.65a5.11,5.11,0,0,0,5.27,4.94,5.11,5.11,0,0,0,5.27-4.94C-1164.53-1288.28-1164.59-1305.11-1164.59-1322Z" transform="translate(1735.36 2418.3)"/><g class="cls-28"><rect class="cls-4" width="3840" height="5031"/><g class="cls-27"><rect class="cls-4" x="545.29" y="1080.01" width="40.54" height="86.79"/></g></g><path class="cls-25" d="M-1058.83-1306.24l.46.73a24.4,24.4,0,0,1,3.71,13,25,25,0,0,1-3.73,13.17,26.22,26.22,0,0,1-10.18,9.58,29.72,29.72,0,0,1-14.21,3.45,27.35,27.35,0,0,1-19.48-7.61,24.47,24.47,0,0,1-8.09-18.49,24.27,24.27,0,0,1,4.1-13.85,6.65,6.65,0,0,1,5.37-2.66,6.29,6.29,0,0,1,6.49,6.07,5.76,5.76,0,0,1-.8,2.91,14.65,14.65,0,0,0-1.89,7.49,14,14,0,0,0,4.09,10.51,14.08,14.08,0,0,0,10.31,4,14.24,14.24,0,0,0,10.39-4.07,14,14,0,0,0,4.15-10.46,15.25,15.25,0,0,0-1.87-7.64,6,6,0,0,1-.67-2.73,6.29,6.29,0,0,1,6.49-6.07A6.64,6.64,0,0,1-1058.83-1306.24Z" transform="translate(1735.36 2418.3)"/><g class="cls-29"><rect class="cls-4" width="3840" height="5031"/><g class="cls-27"><rect class="cls-4" x="610.01" y="1094.39" width="85.69" height="72.61"/></g></g><path class="cls-25" d="M-1000.36-1273v-26.34c0-5.74-1.61-10.06-4.87-13a20.35,20.35,0,0,0-14.08-5.19,22.8,22.8,0,0,0-7.89,1.41,32.23,32.23,0,0,0-8.63,5,6.76,6.76,0,0,0-7-6.44,6.74,6.74,0,0,0-7,6.52v38a6.75,6.75,0,0,0,7,6.52,6.75,6.75,0,0,0,7-6.52v-13.45c0-5.18.21-8.54.61-10.11a13.16,13.16,0,0,1,4.23-7,11,11,0,0,1,7.3-2.54,9.47,9.47,0,0,1,5.49,1.53,8,8,0,0,1,3.12,4.46c.59,2,.9,5.9.9,11.84V-1273a6.73,6.73,0,0,0,6.9,6.52A6.75,6.75,0,0,0-1000.36-1273Z" transform="translate(1735.36 2418.3)"/><g class="cls-30"><rect class="cls-4" width="3840" height="5031"/><g class="cls-27"><rect class="cls-4" x="670.62" y="1085.78" width="79.38" height="81.02"/></g></g><path class="cls-25" d="M-1074.27-1319.88a6.25,6.25,0,0,1,4.46,1.75,5.49,5.49,0,0,1,1.83,4.18,5.43,5.43,0,0,1-1.83,4.12,6.33,6.33,0,0,1-4.46,1.75,6.26,6.26,0,0,1-4.43-1.75,5.43,5.43,0,0,1-1.85-4.12,5.51,5.51,0,0,1,1.85-4.18A6.18,6.18,0,0,1-1074.27-1319.88Z" transform="translate(1735.36 2418.3)"/><g class="cls-31"><rect class="cls-4" width="3840" height="5031"/><g class="cls-27"><rect class="cls-4" x="639.81" y="1083.42" width="42.58" height="41.79"/></g></g><path class="cls-25" d="M-1090.76-1319.88a6.26,6.26,0,0,1,4.46,1.75,5.53,5.53,0,0,1,1.83,4.18,5.46,5.46,0,0,1-1.83,4.12,6.35,6.35,0,0,1-4.46,1.75,6.26,6.26,0,0,1-4.43-1.75,5.44,5.44,0,0,1-1.86-4.12,5.52,5.52,0,0,1,1.86-4.18A6.18,6.18,0,0,1-1090.76-1319.88Z" transform="translate(1735.36 2418.3)"/><g class="cls-32"><rect class="cls-4" width="3840" height="5031"/><g class="cls-27"><rect class="cls-4" x="623.32" y="1083.42" width="42.58" height="41.79"/></g></g><path class="cls-25" d="M-1191-1323.17a7,7,0,0,0-5,1.93,6.15,6.15,0,0,0-2.06,4.69,6.47,6.47,0,0,0,2.11,4.9,7,7,0,0,0,5.06,2,6.88,6.88,0,0,0,5-2,6.21,6.21,0,0,0,2.06-4.75,6.39,6.39,0,0,0-2.08-4.83A7.09,7.09,0,0,0-1191-1323.17Z" transform="translate(1735.36 2418.3)"/><g class="cls-33"><rect class="cls-4" width="3840" height="5031"/><g class="cls-27"><rect class="cls-4" x="522.31" y="1080.13" width="44.18" height="43.53"/></g></g><path class="cls-25" d="M-1185.72-1271.44v-26.33a5.1,5.1,0,0,0-5.26-4.94,5.11,5.11,0,0,0-5.28,4.94v26.33a5.11,5.11,0,0,0,5.28,4.94A5.1,5.1,0,0,0-1185.72-1271.44Z" transform="translate(1735.36 2418.3)"/><g class="cls-34"><rect class="cls-4" width="3840" height="5031"/><g class="cls-27"><rect class="cls-4" x="524.1" y="1100.59" width="40.54" height="66.22"/></g></g><path class="cls-25" d="M-1274.82-1309.92a5.12,5.12,0,0,0-5.28-4.94,5.11,5.11,0,0,0-5.26,4.94v38.48a5.1,5.1,0,0,0,5.26,4.94,5.11,5.11,0,0,0,5.28-4.94v-15.86c0-3.42.15-7.76,1.44-11a12.52,12.52,0,0,1,4.54-5.78,11.86,11.86,0,0,1,6.86-2.11,10.21,10.21,0,0,1,5.91,1.72,10,10,0,0,1,3.64,5.1c1,3,1.13,6.95,1.13,10.09v17.8a5.12,5.12,0,0,0,5.29,5,5.13,5.13,0,0,0,5.3-5v-16.15c0-3.34.13-7.7,1.41-10.83a12.26,12.26,0,0,1,4.53-5.65,12.26,12.26,0,0,1,7-2.08,9.35,9.35,0,0,1,7.89,3.56c2.26,3,2.5,8.61,2.5,12.21v19a5.12,5.12,0,0,0,5.28,4.94,5.11,5.11,0,0,0,5.27-4.94c0-7.63,0-15.26,0-22.89,0-3.67-.16-9-1.76-12.39a13.36,13.36,0,0,0-5.61-5.85,18.21,18.21,0,0,0-9.22-2.29,20.81,20.81,0,0,0-9.41,2.14,19.77,19.77,0,0,0-7.28,6.24l-1.32,1.85-1.11-2a15.63,15.63,0,0,0-5.93-6.15,16.21,16.21,0,0,0-8.24-2.1,22.07,22.07,0,0,0-8.51,1.63,21.44,21.44,0,0,0-7.13,4.93l-2.46,2.56Z" transform="translate(1735.36 2418.3)"/><g class="cls-35"><rect class="cls-4" width="3840" height="5031"/><g class="cls-27"><rect class="cls-4" x="435" y="1088.44" width="108.52" height="78.36"/></g></g><path class="cls-25" d="M-1122.24-1271.44v-26.33a5.11,5.11,0,0,0-5.27-4.94,5.12,5.12,0,0,0-5.28,4.94v26.33a5.12,5.12,0,0,0,5.28,4.94A5.11,5.11,0,0,0-1122.24-1271.44Z" transform="translate(1735.36 2418.3)"/><g class="cls-36"><rect class="cls-4" width="3840" height="5031"/><g class="cls-27"><rect class="cls-4" x="587.57" y="1100.59" width="40.54" height="66.22"/></g></g><path class="cls-25" d="M-1127.51-1323.17a7,7,0,0,0-5,1.93,6.16,6.16,0,0,0-2.07,4.69,6.47,6.47,0,0,0,2.11,4.9,7,7,0,0,0,5.07,2,6.87,6.87,0,0,0,4.94-2,6.22,6.22,0,0,0,2.07-4.75,6.39,6.39,0,0,0-2.08-4.83A7.11,7.11,0,0,0-1127.51-1323.17Z" transform="translate(1735.36 2418.3)"/><g class="cls-37"><rect class="cls-4" width="3840" height="5031"/><g class="cls-27"><rect class="cls-4" x="585.78" y="1080.13" width="44.18" height="43.53"/></g></g><path class="cls-25" d="M-1030.3-1241.46h-5.9a3.27,3.27,0,0,0,.13.56,3.36,3.36,0,0,0,.63,1.14,2.4,2.4,0,0,0,.94.69,3.22,3.22,0,0,0,1.24.24,2.84,2.84,0,0,0,1.43-.33,3.09,3.09,0,0,0,.94-.86,3.62,3.62,0,0,0,.54-1.22Zm-93.8,0H-1130a4.58,4.58,0,0,0,.15.56,3.17,3.17,0,0,0,.62,1.14,2.55,2.55,0,0,0,.94.69,3.21,3.21,0,0,0,1.23.24,2.85,2.85,0,0,0,1.44-.33,2.88,2.88,0,0,0,.94-.86,3.6,3.6,0,0,0,.53-1.22A1.41,1.41,0,0,0-1124.1-1241.46Zm-38.72,0h-5.9a3.27,3.27,0,0,0,.13.56,3.38,3.38,0,0,0,.64,1.14,2.44,2.44,0,0,0,.93.69,3.3,3.3,0,0,0,1.24.24,2.88,2.88,0,0,0,1.44-.33,2.88,2.88,0,0,0,.94-.86,3.8,3.8,0,0,0,.53-1.22C-1162.85-1241.31-1162.84-1241.38-1162.82-1241.46Zm-36.69-1.12a4.36,4.36,0,0,0-.25-1.56,3.47,3.47,0,0,0-.66-1.1,2.89,2.89,0,0,0-1-.64,3.09,3.09,0,0,0-1.2-.23,2.82,2.82,0,0,0-1.21.25,2.74,2.74,0,0,0-1,.67,3.22,3.22,0,0,0-.63,1.13,4.39,4.39,0,0,0-.25,1.53,5.63,5.63,0,0,0,.23,1.63,3.56,3.56,0,0,0,.64,1.14,2.48,2.48,0,0,0,.92.69,3.35,3.35,0,0,0,1.25.24,2.88,2.88,0,0,0,1.44-.33,2.88,2.88,0,0,0,.94-.86,4,4,0,0,0,.53-1.22A5.53,5.53,0,0,0-1199.51-1242.58Zm13.1,3.59h.56c.47,0,.93,0,1.4,0a5.42,5.42,0,0,0,1-.15,2.27,2.27,0,0,0,.74-.35,2.15,2.15,0,0,0,.59-.68,1.87,1.87,0,0,0,.27-.57c.06-.22.12-.44.17-.66a4.25,4.25,0,0,0,.08-.61c0-.18,0-.35,0-.53a6.73,6.73,0,0,0-.11-1.11,3.64,3.64,0,0,0-.38-1,2.08,2.08,0,0,0-.5-.6,2.39,2.39,0,0,0-.59-.36,2.64,2.64,0,0,0-.61-.17l-.67-.08a4.78,4.78,0,0,0-.53,0h-1.5Zm103.69-3.59a4.16,4.16,0,0,0-.26-1.56,3.63,3.63,0,0,0-.65-1.1,2.89,2.89,0,0,0-1-.64,3.09,3.09,0,0,0-1.2-.23,2.86,2.86,0,0,0-1.21.25,2.61,2.61,0,0,0-1,.67,3.1,3.1,0,0,0-.64,1.13,4.38,4.38,0,0,0-.24,1.53,5.62,5.62,0,0,0,.22,1.63,3.38,3.38,0,0,0,.64,1.14,2.44,2.44,0,0,0,.93.69,3.26,3.26,0,0,0,1.24.24,2.88,2.88,0,0,0,1.44-.33,2.88,2.88,0,0,0,.94-.86,3.8,3.8,0,0,0,.53-1.22A5.53,5.53,0,0,0-1082.72-1242.58Zm18.58,1.78c.06-.16.1-.3.15-.47a5.14,5.14,0,0,0,.15-1.3,4.47,4.47,0,0,0-.24-1.54,3.41,3.41,0,0,0-.64-1.1,2.74,2.74,0,0,0-1-.67,2.94,2.94,0,0,0-1.23-.25,3.24,3.24,0,0,0-1.19.24,2.88,2.88,0,0,0-1,.67,3.7,3.7,0,0,0-.65,1.14,4.42,4.42,0,0,0-.26,1.61,5.24,5.24,0,0,0,.21,1.51,3.1,3.1,0,0,0,.59,1.14,2.81,2.81,0,0,0,1,.74,3,3,0,0,0,1.3.26,2.54,2.54,0,0,0,1-.16,1.15,1.15,0,0,0,.17-.06l-.25-.23a.92.92,0,0,1-.28-.66,1,1,0,0,1,.12-.49,2.22,2.22,0,0,1,.25-.35,2.13,2.13,0,0,1,.4-.29,1.13,1.13,0,0,1,.54-.13c.28,0,.1,0,.37.07l.24.13,0,0Zm62.46-10.5a1.3,1.3,0,0,1,1.32,1.27,1.29,1.29,0,0,1-1.32,1.26A1.3,1.3,0,0,1-1003-1250,1.3,1.3,0,0,1-1001.68-1251.3Zm-220.25,0a1.28,1.28,0,0,1,1.3,1.27,1.28,1.28,0,0,1-1.3,1.26,1.29,1.29,0,0,1-1.32-1.26A1.3,1.3,0,0,1-1221.93-1251.3Zm-42,0a1.3,1.3,0,0,1,1.32,1.27,1.29,1.29,0,0,1-1.32,1.26,1.29,1.29,0,0,1-1.31-1.26A1.29,1.29,0,0,1-1264-1251.3Zm233.68,7.62a2.69,2.69,0,0,0-.14-.46,3.63,3.63,0,0,0-.65-1.1,2.89,2.89,0,0,0-1-.64,3.07,3.07,0,0,0-1.19-.23,2.81,2.81,0,0,0-1.22.25,2.46,2.46,0,0,0-1,.67,1.54,1.54,0,0,1-.31.25,1.09,1.09,0,0,1-.38.16,1.1,1.1,0,0,1-.54,0,1.15,1.15,0,0,1-.56-.33,1.14,1.14,0,0,1-.32-.52,1,1,0,0,1,0-.73,1.54,1.54,0,0,1,.29-.41,5.21,5.21,0,0,1,1.8-1.14,6.14,6.14,0,0,1,2.17-.4,9.09,9.09,0,0,1,1.27.12,5.06,5.06,0,0,1,1.67.6,4.91,4.91,0,0,1,1.49,1.26,5.53,5.53,0,0,1,.79,1.45,5.4,5.4,0,0,1,.33,1.36c0,.34.06.68.06,1a6.86,6.86,0,0,1-.16,1.57,6.44,6.44,0,0,1-.66,1.72,5.38,5.38,0,0,1-1.15,1.37,5.14,5.14,0,0,1-1.62.93,5.89,5.89,0,0,1-2,.33,6.61,6.61,0,0,1-2.21-.36,4.82,4.82,0,0,1-1.82-1.15,5.15,5.15,0,0,1-1.2-1.84,6.61,6.61,0,0,1-.44-2.49v-.1a1,1,0,0,1,.51-1,1.09,1.09,0,0,1,.37-.14l.27,0Zm-93.8,0a2,2,0,0,0-.14-.46,3.47,3.47,0,0,0-.66-1.1,2.8,2.8,0,0,0-.94-.64,3.19,3.19,0,0,0-1.22-.23,2.78,2.78,0,0,0-1.2.25,2.46,2.46,0,0,0-1,.67,1.48,1.48,0,0,1-.3.25,1.28,1.28,0,0,1-.38.16,1.13,1.13,0,0,1-.55,0,1.07,1.07,0,0,1-.56-.33,1.23,1.23,0,0,1-.32-.52,1,1,0,0,1,0-.73,1.87,1.87,0,0,1,.3-.41,5.36,5.36,0,0,1,1.79-1.14,6.22,6.22,0,0,1,2.17-.4,9.23,9.23,0,0,1,1.29.12,5.22,5.22,0,0,1,1.67.6,5.12,5.12,0,0,1,1.48,1.26,5,5,0,0,1,.79,1.45,5.38,5.38,0,0,1,.32,1.36,7,7,0,0,1,.08,1,8.2,8.2,0,0,1-.17,1.57,6.14,6.14,0,0,1-.67,1.72,5.18,5.18,0,0,1-1.15,1.37,5,5,0,0,1-1.61.93,5.91,5.91,0,0,1-2,.33,6.63,6.63,0,0,1-2.2-.36,5,5,0,0,1-1.82-1.15,5.15,5.15,0,0,1-1.2-1.84,6.61,6.61,0,0,1-.44-2.49v-.1a1,1,0,0,1,.5-1,1.24,1.24,0,0,1,.38-.14l.27,0Zm-38.72,0a2.69,2.69,0,0,0-.14-.46,3.63,3.63,0,0,0-.65-1.1,2.89,2.89,0,0,0-1-.64,3.07,3.07,0,0,0-1.19-.23,2.81,2.81,0,0,0-1.22.25,2.61,2.61,0,0,0-1,.67,2.26,2.26,0,0,1-.29.25,1.4,1.4,0,0,1-.4.16,1.1,1.1,0,0,1-.54,0,1.19,1.19,0,0,1-.56-.33,1.14,1.14,0,0,1-.32-.52,1,1,0,0,1,0-.73,1.81,1.81,0,0,1,.29-.41,5.21,5.21,0,0,1,1.8-1.14,6.22,6.22,0,0,1,2.17-.4,9,9,0,0,1,1.27.12,5.06,5.06,0,0,1,1.67.6,4.79,4.79,0,0,1,1.49,1.26,5.87,5.87,0,0,1,.8,1.45,5.38,5.38,0,0,1,.32,1.36c0,.34.06.68.06,1a6.86,6.86,0,0,1-.16,1.57,6.12,6.12,0,0,1-.66,1.72,5.38,5.38,0,0,1-1.15,1.37,5.14,5.14,0,0,1-1.62.93,5.85,5.85,0,0,1-2,.33,6.51,6.51,0,0,1-2.2-.36,4.82,4.82,0,0,1-1.82-1.15,5,5,0,0,1-1.21-1.84,6.6,6.6,0,0,1-.43-2.49v-.1a1,1,0,0,1,.5-1,1.28,1.28,0,0,1,.37-.14l.27,0Zm-113.58,1.11-2.15,5.25a1.13,1.13,0,0,1-.27.41,1.3,1.3,0,0,1-.88.24,1.17,1.17,0,0,1-.82-.24,1,1,0,0,1-.31-.41l-2.17-5.29.08,4.79a1.43,1.43,0,0,1,0,.29,1.17,1.17,0,0,1-.17.38,1,1,0,0,1-.39.35,1.27,1.27,0,0,1-.61.13,1.66,1.66,0,0,1-.62-.11,1,1,0,0,1-.42-.35,1.13,1.13,0,0,1-.17-.39,1.39,1.39,0,0,1,0-.27V-1247a1.55,1.55,0,0,1,0-.37,1.34,1.34,0,0,1,.29-.48c.23-.22.11-.09.34-.21a1.89,1.89,0,0,1,.86-.16,1.69,1.69,0,0,1,1,.25,1.49,1.49,0,0,1,.4.53l2.76,6.84,2.71-6.84a1.51,1.51,0,0,1,.4-.51,1.69,1.69,0,0,1,1-.27,2.05,2.05,0,0,1,.7.11,1.21,1.21,0,0,1,.52.29,1.06,1.06,0,0,1,.25.45,1.57,1.57,0,0,1,0,.37v9.24a.92.92,0,0,1,0,.28,1.12,1.12,0,0,1-.15.38,1.19,1.19,0,0,1-.39.35,1.44,1.44,0,0,1-.64.13,1.36,1.36,0,0,1-.85-.26,1.11,1.11,0,0,1-.39-.89Zm13.67,4.73c0,.09,0,.18,0,.28a1.17,1.17,0,0,1-.17.38,1,1,0,0,1-.39.37,1.35,1.35,0,0,1-.66.14,1.23,1.23,0,0,1-.84-.29,1.06,1.06,0,0,1-.38-.88v-9.23a1,1,0,0,1,0-.29,1,1,0,0,1,.16-.41,1.17,1.17,0,0,1,.4-.34,1.41,1.41,0,0,1,.63-.14,1.48,1.48,0,0,1,.66.14,1.18,1.18,0,0,1,.39.38,1.05,1.05,0,0,1,.17.39,2,2,0,0,1,0,.27Zm11.28-1.2h4.54l.26,0a1,1,0,0,1,.42.16.94.94,0,0,1,.36.38,1.14,1.14,0,0,1,.13.57,1.11,1.11,0,0,1-.14.6,1.19,1.19,0,0,1-.33.37,1.49,1.49,0,0,1-.44.17l-.26,0h-5.81l-.33,0a1.23,1.23,0,0,1-.46-.18,1.07,1.07,0,0,1-.33-.41,1.29,1.29,0,0,1-.11-.57v-9.14a2.4,2.4,0,0,1,0-.28,1.07,1.07,0,0,1,.18-.41,1.08,1.08,0,0,1,.41-.35,1.44,1.44,0,0,1,.62-.13,1.53,1.53,0,0,1,.64.13,1.19,1.19,0,0,1,.4.34.85.85,0,0,1,.19.42,1.27,1.27,0,0,1,0,.28Zm15.4,0h4.53l.26,0a1.12,1.12,0,0,1,.43.16.86.86,0,0,1,.35.38,1.14,1.14,0,0,1,.13.57,1.12,1.12,0,0,1-.15.6.91.91,0,0,1-.33.37,1.3,1.3,0,0,1-.44.17l-.25,0h-5.81c-.12,0-.22,0-.34,0a1.14,1.14,0,0,1-.44-.18,1,1,0,0,1-.35-.41,1.44,1.44,0,0,1-.11-.57v-9.14a.87.87,0,0,1,0-.28,1.35,1.35,0,0,1,.16-.41,1.37,1.37,0,0,1,.41-.35,1.59,1.59,0,0,1,.64-.13,1.59,1.59,0,0,1,.64.13,1.26,1.26,0,0,1,.39.34,1,1,0,0,1,.2.42,2.4,2.4,0,0,1,0,.28Zm15.35,1.2c0,.09,0,.18,0,.28a1.37,1.37,0,0,1-.15.38,1.18,1.18,0,0,1-.4.37,1.32,1.32,0,0,1-.65.14,1.24,1.24,0,0,1-.85-.29,1.1,1.1,0,0,1-.39-.88v-9.23a1.12,1.12,0,0,1,0-.27,1,1,0,0,1,.18-.43,1.06,1.06,0,0,1,.39-.34,1.39,1.39,0,0,1,.64-.14,1.44,1.44,0,0,1,.65.14,1.32,1.32,0,0,1,.4.38,1.22,1.22,0,0,1,.15.39,2,2,0,0,1,0,.27Zm18.14-10.49a9,9,0,0,1,1.27.12,5.14,5.14,0,0,1,1.67.6,4.91,4.91,0,0,1,1.49,1.26,5.26,5.26,0,0,1,.8,1.45,6.4,6.4,0,0,1,.32,1.36c0,.34.06.68.06,1a7.46,7.46,0,0,1-.15,1.57,6.14,6.14,0,0,1-.67,1.72,5.18,5.18,0,0,1-1.15,1.37,5,5,0,0,1-1.62.93,5.85,5.85,0,0,1-2,.33,6.51,6.51,0,0,1-2.2-.36,4.82,4.82,0,0,1-1.82-1.15,4.92,4.92,0,0,1-1.21-1.84,6.6,6.6,0,0,1-.43-2.49,6.52,6.52,0,0,1,.44-2.48,5.53,5.53,0,0,1,1.21-1.86,5.34,5.34,0,0,1,1.81-1.14A6.22,6.22,0,0,1-1202.56-1248.33Zm14.91,11.58a1.23,1.23,0,0,1-.27,0,1.08,1.08,0,0,1-.44-.14,1.21,1.21,0,0,1-.38-.4,1.26,1.26,0,0,1-.16-.63v-9a1.26,1.26,0,0,1,.29-.85,1.27,1.27,0,0,1,1-.35h2.76l1.09,0a7.63,7.63,0,0,1,1.15.18,4.29,4.29,0,0,1,1.13.42,3.63,3.63,0,0,1,1,.79,3.87,3.87,0,0,1,.76,1,6.23,6.23,0,0,1,.43,1.08,5.73,5.73,0,0,1,.21,1.08,8.39,8.39,0,0,1,.06,1,7.54,7.54,0,0,1-.41,2.58,4.67,4.67,0,0,1-1.14,1.83,3.58,3.58,0,0,1-1.15.81,6,6,0,0,1-1.23.42,8,8,0,0,1-1.21.16c-.37,0-.72,0-1.06,0Zm44.53-5.82-2.15,5.25a1,1,0,0,1-.28.41,1.27,1.27,0,0,1-.88.24,1.25,1.25,0,0,1-.83-.24,1.18,1.18,0,0,1-.29-.41l-2.17-5.31.08,4.81a2.85,2.85,0,0,1,0,.29,1.17,1.17,0,0,1-.17.38,1,1,0,0,1-.39.35,1.31,1.31,0,0,1-.62.13,1.64,1.64,0,0,1-.61-.11,1,1,0,0,1-.43-.35,1.34,1.34,0,0,1-.16-.39,1.39,1.39,0,0,1,0-.27V-1247a1.55,1.55,0,0,1,0-.37,1.21,1.21,0,0,1,.29-.48c.23-.22.09-.09.33-.21a2,2,0,0,1,.87-.16,1.59,1.59,0,0,1,1,.25,1.31,1.31,0,0,1,.41.53l2.76,6.84,2.72-6.84a1.61,1.61,0,0,1,.39-.51,1.74,1.74,0,0,1,1-.27,2.13,2.13,0,0,1,.7.11,1.12,1.12,0,0,1,.51.29.88.88,0,0,1,.25.45,1.55,1.55,0,0,1,0,.37v9.24a.92.92,0,0,1,0,.28,1,1,0,0,1-.16.38,1.16,1.16,0,0,1-.38.35,1.44,1.44,0,0,1-.64.13,1.36,1.36,0,0,1-.85-.26,1,1,0,0,1-.39-.89Zm36.65-1.16,0,5.91a2.85,2.85,0,0,1,0,.29,1.43,1.43,0,0,1-.17.38,1.07,1.07,0,0,1-.38.35,1.44,1.44,0,0,1-.64.13,1.46,1.46,0,0,1-.65-.13,1,1,0,0,1-.39-.32,1,1,0,0,1-.19-.4c0-.1,0-.2,0-.29V-1247a1.32,1.32,0,0,1,0-.29.91.91,0,0,1,.23-.47,1.15,1.15,0,0,1,.74-.41,3.29,3.29,0,0,1,.44,0,1.34,1.34,0,0,1,.74.19,1.34,1.34,0,0,1,.38.37l4.52,6.47c0-.14,0-.3,0-.45l0-5.42a1.29,1.29,0,0,1,0-.29,1.09,1.09,0,0,1,.16-.38,1.07,1.07,0,0,1,.43-.36,1.63,1.63,0,0,1,.6-.11,1.33,1.33,0,0,1,.63.14,1,1,0,0,1,.38.33.93.93,0,0,1,.18.39,2.4,2.4,0,0,1,0,.28v9.29c0,.08,0,.19,0,.28a1.29,1.29,0,0,1-.2.41,1.22,1.22,0,0,1-.41.33,1.62,1.62,0,0,1-.7.13,1.5,1.5,0,0,1-.77-.17,1.2,1.2,0,0,1-.36-.35l-4.31-6.2C-1106.31-1243.49-1106.38-1243.61-1106.47-1243.73Zm20.7-4.6a9.09,9.09,0,0,1,1.27.12,5.06,5.06,0,0,1,1.67.6,4.91,4.91,0,0,1,1.49,1.26,5.26,5.26,0,0,1,.8,1.45,5.85,5.85,0,0,1,.32,1.36c0,.34.06.68.06,1a6.35,6.35,0,0,1-.17,1.57,5.8,5.8,0,0,1-.65,1.72,5.18,5.18,0,0,1-1.15,1.37,5.25,5.25,0,0,1-1.62.93,5.85,5.85,0,0,1-2,.33,6.51,6.51,0,0,1-2.2-.36,4.82,4.82,0,0,1-1.82-1.15A4.92,4.92,0,0,1-1091-1240a6.6,6.6,0,0,1-.43-2.49,6.52,6.52,0,0,1,.44-2.48,5.41,5.41,0,0,1,1.22-1.86,5.21,5.21,0,0,1,1.8-1.14A6.22,6.22,0,0,1-1085.77-1248.33Zm21.8,11h0a3.23,3.23,0,0,1-.7.34,9,9,0,0,1-1,.28,6.74,6.74,0,0,1-1.27.11,6,6,0,0,1-2.29-.41,5.32,5.32,0,0,1-1.79-1.18,5.53,5.53,0,0,1-1.14-1.86,7.15,7.15,0,0,1-.38-2.38,8.35,8.35,0,0,1,.14-1.49,5.66,5.66,0,0,1,.51-1.5,5.41,5.41,0,0,1,.73-1.06,5.24,5.24,0,0,1,1.06-.93,5.34,5.34,0,0,1,1.41-.66,6.07,6.07,0,0,1,1.75-.25,6.08,6.08,0,0,1,2.27.41,4.85,4.85,0,0,1,1.79,1.19,5.16,5.16,0,0,1,1.16,1.86,7.19,7.19,0,0,1,.39,2.43c0,.28,0,.56,0,.84a5.58,5.58,0,0,1-.17.89,5.39,5.39,0,0,1-.56,1.42l-.21.32.71.71a1.22,1.22,0,0,1,.24.32,1,1,0,0,1,.11.47,1.21,1.21,0,0,1-.36.82,1.27,1.27,0,0,1-.85.35.87.87,0,0,1-.53-.15.91.91,0,0,1-.29-.19Zm13-8.57h-2.44a1.1,1.1,0,0,1-.41-.16,1,1,0,0,1-.35-.37,1.33,1.33,0,0,1-.12-.59,1.15,1.15,0,0,1,.13-.58,1,1,0,0,1,.34-.35.91.91,0,0,1,.42-.17l.24,0h6.83a1.18,1.18,0,0,1,.55.11,1.54,1.54,0,0,1,.38.34,1,1,0,0,1,.21.69,1.06,1.06,0,0,1-.14.58,1.27,1.27,0,0,1-.33.36,1.19,1.19,0,0,1-.43.16h-2.39v8.07a2.66,2.66,0,0,1,0,.28.91.91,0,0,1-.19.41,1.08,1.08,0,0,1-.41.35,1.35,1.35,0,0,1-.63.13,1.33,1.33,0,0,1-.62-.13,1,1,0,0,1-.43-.36,1.49,1.49,0,0,1-.15-.4,1.41,1.41,0,0,1,0-.28Zm36.58,2.21a10.37,10.37,0,0,1,1,.31,4.43,4.43,0,0,1,1.11.6,3.35,3.35,0,0,1,.88,1,3.23,3.23,0,0,1,.36,1.59,3.27,3.27,0,0,1-.44,1.72,3.37,3.37,0,0,1-1.11,1.11,5.34,5.34,0,0,1-1.45.57,7.47,7.47,0,0,1-1.49.16,6.5,6.5,0,0,1-1.7-.22,4.05,4.05,0,0,1-1.55-.71,3.41,3.41,0,0,1-.71-.71,5.65,5.65,0,0,1-.42-.72,3.22,3.22,0,0,1-.22-.64,1.68,1.68,0,0,1-.07-.44,1.12,1.12,0,0,1,.2-.66,1.29,1.29,0,0,1,.41-.35,1.52,1.52,0,0,1,.44-.15,1.32,1.32,0,0,1,.34,0,1.09,1.09,0,0,1,.87.32,1.24,1.24,0,0,1,.24.47c.08.25.17.48.26.72a1.16,1.16,0,0,0,.47.51,1.53,1.53,0,0,0,.79.32,4.23,4.23,0,0,0,.79.08h.33l.36-.05.41-.11a.79.79,0,0,0,.31-.17,1.1,1.1,0,0,0,.33-.38,1.07,1.07,0,0,0,.12-.49,1,1,0,0,0-.1-.46,2.07,2.07,0,0,0-.28-.32,2.24,2.24,0,0,0-.65-.34c-.35-.13-.71-.23-1.08-.34l-1.13-.3c-.23-.06-.44-.13-.67-.21a5.19,5.19,0,0,1-.62-.23,2.63,2.63,0,0,1-.41-.21,2.47,2.47,0,0,1-.58-.48,3,3,0,0,1-.47-.79,3.06,3.06,0,0,1-.21-1.16,3.66,3.66,0,0,1,.26-1.36,2.87,2.87,0,0,1,.82-1.13,3.83,3.83,0,0,1,1.33-.72,6.22,6.22,0,0,1,1.78-.25l.63,0a5.39,5.39,0,0,1,.79.12,4.92,4.92,0,0,1,.85.26,3.67,3.67,0,0,1,.82.52,2.63,2.63,0,0,1,.5.5,4,4,0,0,1,.38.54,3.39,3.39,0,0,1,.24.55,1.52,1.52,0,0,1,.11.53,1.13,1.13,0,0,1-.44.91,1.45,1.45,0,0,1-.85.26,1.61,1.61,0,0,1-.43-.07,1,1,0,0,1-.48-.4c-.06-.08-.11-.19-.17-.29l-.13-.26a2.46,2.46,0,0,0-.19-.32,1.33,1.33,0,0,0-.28-.3,3.06,3.06,0,0,0-.54-.28,3.22,3.22,0,0,0-.88-.11,3.82,3.82,0,0,0-.68.07,1.12,1.12,0,0,0-.47.21,1.12,1.12,0,0,0-.32.33.94.94,0,0,0-.1.5.8.8,0,0,0,0,.31l.14.16a1.51,1.51,0,0,0,.48.22c.25.09.51.16.76.23Zm14,5.86a1.41,1.41,0,0,1,0,.28,1.77,1.77,0,0,1-.15.38,1.22,1.22,0,0,1-.41.37,1.32,1.32,0,0,1-.65.14,1.27,1.27,0,0,1-.85-.29,1.09,1.09,0,0,1-.38-.88v-9.23a2.85,2.85,0,0,1,0-.29,1.07,1.07,0,0,1,.18-.41.89.89,0,0,1,.4-.34,1.31,1.31,0,0,1,.62-.14,1.44,1.44,0,0,1,.65.14,1.36,1.36,0,0,1,.41.38,1.51,1.51,0,0,1,.15.39,1.12,1.12,0,0,1,0,.27Zm-200-13.46a1.3,1.3,0,0,1,1.32,1.27,1.3,1.3,0,0,1-1.32,1.26,1.29,1.29,0,0,1-1.31-1.26A1.29,1.29,0,0,1-1200.48-1251.3Zm-4.17,0a1.3,1.3,0,0,1,1.32,1.27,1.3,1.3,0,0,1-1.32,1.26A1.29,1.29,0,0,1-1206-1250,1.3,1.3,0,0,1-1204.65-1251.3Zm121,0a1.3,1.3,0,0,1,1.32,1.27,1.29,1.29,0,0,1-1.32,1.26A1.29,1.29,0,0,1-1085-1250,1.3,1.3,0,0,1-1083.69-1251.3Zm-4.17,0a1.28,1.28,0,0,1,1.3,1.27,1.28,1.28,0,0,1-1.3,1.26,1.29,1.29,0,0,1-1.32-1.26A1.3,1.3,0,0,1-1087.86-1251.3Z" transform="translate(1735.36 2418.3)"/><g class="cls-38"><rect class="cls-4" width="3840" height="5031"/><g class="cls-27"><rect class="cls-4" x="435" y="1152" width="315" height="45"/></g></g><path class="cls-39" d="M180.11,82.45c0-1.15,1.17-1.72,2.49-1l6.45,3.32a3,3,0,0,1,1.56,2.57V133a5.28,5.28,0,0,1-10.54,0Q180.07,107.73,180.11,82.45Z" transform="translate(1735.36 2418.3)"/><g class="cls-40"><rect class="cls-6" x="1333.99" y="1404.42" width="3840" height="5031"/><g class="cls-41"><rect class="cls-6" x="1900.43" y="2484.42" width="40.54" height="86.79"/></g></g><path class="cls-39" d="M169.4,82.45c0-1.15-1.15-1.72-2.48-1l-6.44,3.32a3,3,0,0,0-1.56,2.57V133a5.28,5.28,0,0,0,10.54,0C169.46,116.14,169.4,99.3,169.4,82.45Z" transform="translate(1735.36 2418.3)"/><g class="cls-42"><rect class="cls-6" x="1333.99" y="1404.42" width="3840" height="5031"/><g class="cls-41"><rect class="cls-6" x="1879.28" y="2484.42" width="40.54" height="86.79"/></g></g><path class="cls-39" d="M275.16,98.18l.45.72a24.35,24.35,0,0,1,3.72,13,25,25,0,0,1-3.73,13.17,26.19,26.19,0,0,1-10.18,9.57,29.73,29.73,0,0,1-14.22,3.46,27.35,27.35,0,0,1-19.47-7.62,25.28,25.28,0,0,1-4-32.34,6.67,6.67,0,0,1,5.37-2.65,6.29,6.29,0,0,1,6.49,6.06,5.68,5.68,0,0,1-.81,2.92,14.71,14.71,0,0,0-1.88,7.48,13.87,13.87,0,0,0,14.4,14.54,14.25,14.25,0,0,0,10.39-4.08A14,14,0,0,0,265.84,112a15.25,15.25,0,0,0-1.86-7.64,6,6,0,0,1-.67-2.73,6.29,6.29,0,0,1,6.49-6.06A6.64,6.64,0,0,1,275.16,98.18Z" transform="translate(1735.36 2418.3)"/><g class="cls-43"><rect class="cls-6" x="1333.99" y="1404.42" width="3840" height="5031"/><g class="cls-41"><rect class="cls-6" x="1944" y="2498.81" width="85.69" height="72.61"/></g></g><path class="cls-39" d="M333.63,131.4V105.05c0-5.73-1.61-10-4.87-13a20.36,20.36,0,0,0-14.08-5.18,23,23,0,0,0-7.89,1.4,32.78,32.78,0,0,0-8.63,5,7,7,0,0,0-13.91.09v38a7,7,0,0,0,13.91,0V117.94c0-5.17.21-8.54.61-10.1a13.13,13.13,0,0,1,4.23-7,10.94,10.94,0,0,1,7.3-2.55,9.4,9.4,0,0,1,5.49,1.54,8,8,0,0,1,3.12,4.46c.59,1.94.9,5.89.9,11.83V131.4a6.92,6.92,0,0,0,13.82,0Z" transform="translate(1735.36 2418.3)"/><g class="cls-44"><rect class="cls-6" x="1333.99" y="1404.42" width="3840" height="5031"/><g class="cls-41"><rect class="cls-6" x="2004.61" y="2490.2" width="79.38" height="81.02"/></g></g><path class="cls-39" d="M259.72,84.54a6.26,6.26,0,0,1,4.46,1.75,5.61,5.61,0,0,1,0,8.29,6.3,6.3,0,0,1-4.46,1.75,6.22,6.22,0,0,1-4.43-1.75,5.41,5.41,0,0,1-1.86-4.12,5.49,5.49,0,0,1,1.86-4.17A6.18,6.18,0,0,1,259.72,84.54Z" transform="translate(1735.36 2418.3)"/><g class="cls-45"><rect class="cls-6" x="1333.99" y="1404.42" width="3840" height="5031"/><g class="cls-41"><rect class="cls-6" x="1973.8" y="2487.84" width="42.58" height="41.79"/></g></g><path class="cls-39" d="M243.22,84.54a6.23,6.23,0,0,1,4.46,1.75,5.59,5.59,0,0,1,0,8.29,6.52,6.52,0,0,1-8.89,0,5.44,5.44,0,0,1-1.85-4.12,5.51,5.51,0,0,1,1.85-4.17A6.21,6.21,0,0,1,243.22,84.54Z" transform="translate(1735.36 2418.3)"/><g class="cls-46"><rect class="cls-6" x="1333.99" y="1404.42" width="3840" height="5031"/><g class="cls-41"><rect class="cls-6" x="1957.31" y="2487.84" width="42.58" height="41.79"/></g></g><path class="cls-39" d="M143,81.24a7,7,0,0,0-5,1.94,6.11,6.11,0,0,0-2.06,4.68,6.5,6.5,0,0,0,2.11,4.91,7,7,0,0,0,5.06,2,6.89,6.89,0,0,0,4.95-2,6.19,6.19,0,0,0,2.06-4.74A6.39,6.39,0,0,0,148,83.22,7.06,7.06,0,0,0,143,81.24Z" transform="translate(1735.36 2418.3)"/><g class="cls-47"><rect class="cls-6" x="1333.99" y="1404.42" width="3840" height="5031"/><g class="cls-41"><rect class="cls-6" x="1856.3" y="2484.54" width="44.18" height="43.53"/></g></g><path class="cls-39" d="M148.27,133V106.65a5.28,5.28,0,0,0-10.54,0V133a5.28,5.28,0,0,0,10.54,0Z" transform="translate(1735.36 2418.3)"/><g class="cls-48"><rect class="cls-6" x="1333.99" y="1404.42" width="3840" height="5031"/><g class="cls-41"><rect class="cls-6" x="1858.09" y="2505" width="40.54" height="66.22"/></g></g><path class="cls-39" d="M59.17,94.5a5.28,5.28,0,0,0-10.54,0V133a5.28,5.28,0,0,0,10.54,0V117.12c0-3.43.15-7.76,1.44-11a12.57,12.57,0,0,1,4.54-5.78A11.93,11.93,0,0,1,72,98.25,10.13,10.13,0,0,1,77.92,100a9.93,9.93,0,0,1,3.64,5.1c1,3,1.13,7,1.13,10.09V133a5.31,5.31,0,0,0,10.59,0V116.8c0-3.33.13-7.7,1.41-10.82a12.14,12.14,0,0,1,11.48-7.73,9.35,9.35,0,0,1,7.89,3.55c2.26,3,2.5,8.61,2.5,12.22v19a5.29,5.29,0,0,0,10.55,0c0-7.63,0-15.26,0-22.89,0-3.66-.16-9-1.76-12.38a13.38,13.38,0,0,0-5.61-5.86,18.21,18.21,0,0,0-9.22-2.29,20.82,20.82,0,0,0-9.41,2.15,19.67,19.67,0,0,0-7.28,6.24l-1.32,1.84-1.11-2a15.64,15.64,0,0,0-5.93-6.15,16.21,16.21,0,0,0-8.24-2.11,22.08,22.08,0,0,0-8.51,1.64,21.3,21.3,0,0,0-7.13,4.93l-2.46,2.56Z" transform="translate(1735.36 2418.3)"/><g class="cls-49"><rect class="cls-6" x="1333.99" y="1404.42" width="3840" height="5031"/><g class="cls-41"><rect class="cls-6" x="1768.99" y="2492.85" width="108.52" height="78.36"/></g></g><path class="cls-39" d="M211.75,133V106.65a5.29,5.29,0,0,0-10.55,0V133a5.29,5.29,0,0,0,10.55,0Z" transform="translate(1735.36 2418.3)"/><g class="cls-50"><rect class="cls-6" x="1333.99" y="1404.42" width="3840" height="5031"/><g class="cls-41"><rect class="cls-6" x="1921.56" y="2505" width="40.54" height="66.22"/></g></g><path class="cls-39" d="M206.48,81.24a7,7,0,0,0-5,1.94,6.14,6.14,0,0,0-2.06,4.68,6.5,6.5,0,0,0,2.11,4.91,7.05,7.05,0,0,0,5.07,2,6.88,6.88,0,0,0,4.94-2,6.19,6.19,0,0,0,2.07-4.74,6.39,6.39,0,0,0-2.08-4.83A7.08,7.08,0,0,0,206.48,81.24Z" transform="translate(1735.36 2418.3)"/><g class="cls-51"><rect class="cls-6" x="1333.99" y="1404.42" width="3840" height="5031"/><g class="cls-41"><rect class="cls-6" x="1919.77" y="2484.54" width="44.18" height="43.53"/></g></g><path class="cls-39" d="M303.69,163h-5.9a3.5,3.5,0,0,0,.13.56,3.46,3.46,0,0,0,.63,1.14,2.4,2.4,0,0,0,.94.69,3.22,3.22,0,0,0,1.24.23,2.8,2.8,0,0,0,1.42-.32,2.93,2.93,0,0,0,1-.87,3.48,3.48,0,0,0,.54-1.21Zm-93.8,0H204c.05.19.1.38.16.56a3.26,3.26,0,0,0,.62,1.14,2.47,2.47,0,0,0,.94.69,3.2,3.2,0,0,0,1.23.23,2.85,2.85,0,0,0,1.44-.32,2.8,2.8,0,0,0,.94-.87,3.46,3.46,0,0,0,.53-1.21C209.84,163.11,209.88,163,209.89,163Zm-38.72,0h-5.9a3.34,3.34,0,0,0,.77,1.7,2.44,2.44,0,0,0,.93.69,3.25,3.25,0,0,0,1.24.23,2.87,2.87,0,0,0,1.44-.32,2.8,2.8,0,0,0,.94-.87,3.66,3.66,0,0,0,.53-1.21C171.14,163.11,171.15,163,171.17,163Zm-36.69-1.13a4.31,4.31,0,0,0-.25-1.55,3.26,3.26,0,0,0-.66-1.1,2.61,2.61,0,0,0-1-.64,2.92,2.92,0,0,0-1.2-.24,2.82,2.82,0,0,0-1.21.25,2.87,2.87,0,0,0-1,.67,3.31,3.31,0,0,0-.63,1.13,4.22,4.22,0,0,0-.25,1.54,5.35,5.35,0,0,0,.23,1.63,3.67,3.67,0,0,0,.64,1.14,2.48,2.48,0,0,0,.92.69,3.34,3.34,0,0,0,1.25.23,2.87,2.87,0,0,0,1.44-.32,2.8,2.8,0,0,0,.94-.87,3.88,3.88,0,0,0,.53-1.21A5.55,5.55,0,0,0,134.48,161.83Zm13.1,3.59h.56c.47,0,.93,0,1.4,0a4.58,4.58,0,0,0,1-.15,2.05,2.05,0,0,0,.75-.35,2.73,2.73,0,0,0,.86-1.24c.06-.22.12-.44.17-.66s.06-.41.08-.62,0-.35,0-.52a7,7,0,0,0-.11-1.12,3.69,3.69,0,0,0-.38-1,2,2,0,0,0-.5-.6,2.43,2.43,0,0,0-.59-.37,3.22,3.22,0,0,0-.61-.16l-.67-.09h-2Zm103.69-3.59a4.11,4.11,0,0,0-.26-1.55,3.41,3.41,0,0,0-.65-1.1,2.7,2.7,0,0,0-1-.64,2.92,2.92,0,0,0-1.2-.24,2.82,2.82,0,0,0-1.21.25,2.87,2.87,0,0,0-1,.67,3.31,3.31,0,0,0-.63,1.13,4.44,4.44,0,0,0-.25,1.54,5.68,5.68,0,0,0,.23,1.63,3.48,3.48,0,0,0,.64,1.14,2.48,2.48,0,0,0,.92.69,3.34,3.34,0,0,0,1.25.23,2.87,2.87,0,0,0,1.44-.32,2.8,2.8,0,0,0,.94-.87,3.88,3.88,0,0,0,.53-1.21A5.55,5.55,0,0,0,251.27,161.83Zm18.58,1.79c.06-.16.1-.31.15-.47a5.19,5.19,0,0,0,.15-1.3,4.47,4.47,0,0,0-.24-1.54,3.21,3.21,0,0,0-.64-1.1,2.61,2.61,0,0,0-.95-.67,2.94,2.94,0,0,0-1.23-.25,3.23,3.23,0,0,0-1.19.23,2.88,2.88,0,0,0-.95.67,3.75,3.75,0,0,0-.65,1.15A4.42,4.42,0,0,0,264,162a5.24,5.24,0,0,0,.21,1.51,3,3,0,0,0,.59,1.14,2.67,2.67,0,0,0,1,.73,3,3,0,0,0,1.3.27,2.38,2.38,0,0,0,1-.17c.06,0,.1,0,.17-.05l-.25-.24a.92.92,0,0,1-.29-.66,1,1,0,0,1,.13-.48,1.83,1.83,0,0,1,.25-.35,1.9,1.9,0,0,1,.4-.3,1.23,1.23,0,0,1,.54-.13c.28,0,.1,0,.37.08l.24.13.05,0Zm62.46-10.5a1.27,1.27,0,1,1-1.31,1.27A1.3,1.3,0,0,1,332.31,153.12Zm-220.25,0a1.27,1.27,0,1,1,0,2.53,1.27,1.27,0,1,1,0-2.53Zm-42,0a1.27,1.27,0,1,1-1.32,1.27A1.3,1.3,0,0,1,70,153.12Zm233.68,7.61a2.89,2.89,0,0,0-.14-.45,3.41,3.41,0,0,0-.65-1.1,2.61,2.61,0,0,0-1-.64,2.92,2.92,0,0,0-1.2-.24,2.79,2.79,0,0,0-1.21.25,2.57,2.57,0,0,0-.95.67,1.22,1.22,0,0,1-.31.25.93.93,0,0,1-.38.16,1.1,1.1,0,0,1-.54,0,1.2,1.2,0,0,1-.56-.34,1.11,1.11,0,0,1-.32-.51,1,1,0,0,1,0-.73,1.24,1.24,0,0,1,.29-.41,5.38,5.38,0,0,1,1.8-1.15,6.13,6.13,0,0,1,2.17-.39,9.09,9.09,0,0,1,1.27.12,4.84,4.84,0,0,1,1.67.6,4.77,4.77,0,0,1,1.49,1.26,5.38,5.38,0,0,1,.79,1.45,5.3,5.3,0,0,1,.33,1.36c0,.34.06.67.06,1a6.4,6.4,0,0,1-.17,1.57,5.92,5.92,0,0,1-.65,1.71,5.83,5.83,0,0,1-1.15,1.38,5,5,0,0,1-1.62.92,5.67,5.67,0,0,1-2,.34,6.62,6.62,0,0,1-2.21-.37,4.93,4.93,0,0,1-1.82-1.14,5.06,5.06,0,0,1-1.2-1.85,6.61,6.61,0,0,1-.44-2.49v-.1a1,1,0,0,1,.51-1,1.11,1.11,0,0,1,.37-.15l.27,0Zm-93.8,0a2.89,2.89,0,0,0-.14-.45,3.26,3.26,0,0,0-.66-1.1,2.54,2.54,0,0,0-.94-.64,3,3,0,0,0-1.22-.24,2.78,2.78,0,0,0-1.2.25,2.57,2.57,0,0,0-.95.67,1,1,0,0,1-.3.25,1.06,1.06,0,0,1-.38.16,1.14,1.14,0,0,1-.55,0,1.15,1.15,0,0,1-.56-.34,1.19,1.19,0,0,1-.32-.51,1,1,0,0,1,0-.73,1.66,1.66,0,0,1,.3-.41,5.44,5.44,0,0,1,1.79-1.15,6.17,6.17,0,0,1,2.17-.39,9.23,9.23,0,0,1,1.29.12,5,5,0,0,1,3.94,3.31,5.28,5.28,0,0,1,.32,1.36,8.57,8.57,0,0,1,.07,1,8.28,8.28,0,0,1-.16,1.57,6,6,0,0,1-.67,1.71,5.39,5.39,0,0,1-1.15,1.38,4.78,4.78,0,0,1-1.61.92,5.68,5.68,0,0,1-2,.34,6.6,6.6,0,0,1-2.2-.37A5,5,0,0,1,203,166.3a5.19,5.19,0,0,1-1.2-1.85,6.61,6.61,0,0,1-.44-2.49v-.1a1,1,0,0,1,.5-1,1.26,1.26,0,0,1,.38-.15l.27,0Zm-38.72,0a2.89,2.89,0,0,0-.14-.45,3.41,3.41,0,0,0-.65-1.1,2.61,2.61,0,0,0-1-.64,2.92,2.92,0,0,0-1.2-.24,2.79,2.79,0,0,0-1.21.25,2.74,2.74,0,0,0-.95.67,1.61,1.61,0,0,1-.29.25,1.16,1.16,0,0,1-.4.16,1.1,1.1,0,0,1-.54,0,1.25,1.25,0,0,1-.56-.34,1.11,1.11,0,0,1-.32-.51,1,1,0,0,1,0-.73,1.4,1.4,0,0,1,.29-.41,5.38,5.38,0,0,1,1.8-1.15,6.21,6.21,0,0,1,2.17-.39,9.09,9.09,0,0,1,1.27.12,4.84,4.84,0,0,1,1.67.6,4.77,4.77,0,0,1,1.49,1.26,5.61,5.61,0,0,1,1.12,2.81c0,.34.06.67.06,1a6.92,6.92,0,0,1-.16,1.57,5.94,5.94,0,0,1-.66,1.71,5.6,5.6,0,0,1-1.15,1.38,5,5,0,0,1-1.62.92,5.63,5.63,0,0,1-2,.34,6.52,6.52,0,0,1-2.2-.37,5.08,5.08,0,0,1-3-3,6.6,6.6,0,0,1-.43-2.49v-.1a1,1,0,0,1,.5-1,1.31,1.31,0,0,1,.37-.15l.27,0ZM57.59,161.85l-2.15,5.24a1.13,1.13,0,0,1-.27.41,1.25,1.25,0,0,1-.88.25,1.13,1.13,0,0,1-.82-.25,1,1,0,0,1-.31-.41L51,161.8l.08,4.79c0,.1,0,.19,0,.3a1.17,1.17,0,0,1-.17.38,1,1,0,0,1-.39.35,1.27,1.27,0,0,1-.61.13,1.49,1.49,0,0,1-.62-.12.9.9,0,0,1-.42-.35,1.17,1.17,0,0,1-.17-.38,1.41,1.41,0,0,1,0-.28v-9.26a1.47,1.47,0,0,1,0-.36,1.3,1.3,0,0,1,.29-.49c.23-.22.11-.08.34-.2a1.89,1.89,0,0,1,.86-.16,1.69,1.69,0,0,1,1,.25,1.58,1.58,0,0,1,.4.52l2.76,6.84,2.71-6.84a1.61,1.61,0,0,1,.4-.51,1.69,1.69,0,0,1,1-.26,2.32,2.32,0,0,1,.7.1,1.32,1.32,0,0,1,.52.29A1.16,1.16,0,0,1,60,157a1.49,1.49,0,0,1,.05.36v9.25a1,1,0,0,1-.05.28,1.12,1.12,0,0,1-.15.38,1.31,1.31,0,0,1-.39.35,1.44,1.44,0,0,1-.64.13,1.36,1.36,0,0,1-.85-.26,1.13,1.13,0,0,1-.39-.9Zm13.67,4.73c0,.09,0,.17,0,.28a1.17,1.17,0,0,1-.17.38,1,1,0,0,1-.39.36,1.26,1.26,0,0,1-.66.15,1.33,1.33,0,0,1-.85-.29,1.1,1.1,0,0,1-.37-.88v-9.23a1,1,0,0,1,0-.29,1,1,0,0,1,.16-.41,1.07,1.07,0,0,1,.4-.34,1.39,1.39,0,0,1,.63-.15,1.49,1.49,0,0,1,.66.15,1.09,1.09,0,0,1,.39.38,1,1,0,0,1,.17.38,2.4,2.4,0,0,1,0,.28Zm11.28-1.2h4.8a1.09,1.09,0,0,1,.78.54,1.16,1.16,0,0,1,.13.57,1.09,1.09,0,0,1-.14.6,1.19,1.19,0,0,1-.33.37,1.28,1.28,0,0,1-.44.18H81.27a2,2,0,0,1-.34,0,1.44,1.44,0,0,1-.45-.17,1.07,1.07,0,0,1-.33-.41,1.3,1.3,0,0,1-.11-.58v-9.14a2,2,0,0,1,0-.27,1.07,1.07,0,0,1,.18-.41,1.1,1.1,0,0,1,.41-.36,1.6,1.6,0,0,1,.62-.13,1.7,1.7,0,0,1,.64.13,1.19,1.19,0,0,1,.4.34.89.89,0,0,1,.19.43,1.12,1.12,0,0,1,0,.27Zm15.4,0h4.79a1.12,1.12,0,0,1,.43.16.84.84,0,0,1,.34.38,1.07,1.07,0,0,1,.14.57,1.09,1.09,0,0,1-.15.6.91.91,0,0,1-.33.37,1.14,1.14,0,0,1-.44.18H96.66a2.16,2.16,0,0,1-.35,0,1.33,1.33,0,0,1-.43-.17,1,1,0,0,1-.35-.41,1.46,1.46,0,0,1-.11-.58v-9.14a.76.76,0,0,1,0-.27,1.25,1.25,0,0,1,.16-.41,1.4,1.4,0,0,1,.41-.36,1.64,1.64,0,0,1,1.28,0,1.26,1.26,0,0,1,.39.34,1,1,0,0,1,.2.43,2,2,0,0,1,0,.27Zm15.35,1.2c0,.09,0,.17,0,.28a1,1,0,0,1-.55.74,1.22,1.22,0,0,1-.65.15,1.29,1.29,0,0,1-.85-.29,1.11,1.11,0,0,1-.39-.88v-9.23a1.27,1.27,0,0,1,0-.28,1.05,1.05,0,0,1,.18-.42,1,1,0,0,1,.39-.34,1.4,1.4,0,0,1,.64-.15,1.44,1.44,0,0,1,.65.15,1.32,1.32,0,0,1,.4.38,1.16,1.16,0,0,1,.15.38,2.4,2.4,0,0,1,0,.28Zm18.14-10.49a9,9,0,0,1,1.27.12,5,5,0,0,1,1.67.6,4.77,4.77,0,0,1,1.49,1.26,5.26,5.26,0,0,1,.8,1.45,6.26,6.26,0,0,1,.32,1.36c0,.34.06.67.06,1a8.27,8.27,0,0,1-.15,1.57,6,6,0,0,1-.67,1.71,5.39,5.39,0,0,1-1.15,1.38,4.83,4.83,0,0,1-1.62.92,5.63,5.63,0,0,1-2,.34,6.52,6.52,0,0,1-2.2-.37,4.85,4.85,0,0,1-1.82-1.14,5,5,0,0,1-1.21-1.85,6.6,6.6,0,0,1-.43-2.49,6.44,6.44,0,0,1,.44-2.47,5.14,5.14,0,0,1,3-3A6.17,6.17,0,0,1,131.43,156.09Zm14.91,11.57h-.28a1.43,1.43,0,0,1-.44-.15,1.1,1.1,0,0,1-.37-.4,1.26,1.26,0,0,1-.16-.63v-9a1.24,1.24,0,0,1,.29-.85,1.22,1.22,0,0,1,1-.35h2.76l1.09,0a7.63,7.63,0,0,1,1.15.18,4.7,4.7,0,0,1,1.13.43,3.46,3.46,0,0,1,1,.79,3.83,3.83,0,0,1,.76,1,6.33,6.33,0,0,1,.43,1.09,5.58,5.58,0,0,1,.21,1.08,8.39,8.39,0,0,1,.06,1,7.52,7.52,0,0,1-.41,2.57,4.64,4.64,0,0,1-1.14,1.84,3.71,3.71,0,0,1-1.15.8,6.91,6.91,0,0,1-1.23.43,9.52,9.52,0,0,1-1.21.16h-3.49Zm44.53-5.81-2.15,5.24a1.15,1.15,0,0,1-.28.41,1.22,1.22,0,0,1-.88.25,1.2,1.2,0,0,1-.83-.25,1.18,1.18,0,0,1-.29-.41l-2.17-5.3.08,4.8c0,.1,0,.19,0,.3a1.17,1.17,0,0,1-.17.38,1.11,1.11,0,0,1-.39.35,1.32,1.32,0,0,1-.63.13,1.43,1.43,0,0,1-.6-.12,1,1,0,0,1-.43-.35,1.19,1.19,0,0,1-.19-.66v-9.26a1.47,1.47,0,0,1,0-.36,1.18,1.18,0,0,1,.29-.49c.23-.22.09-.08.33-.2a2,2,0,0,1,.87-.16,1.59,1.59,0,0,1,1,.25,1.28,1.28,0,0,1,.41.52l2.76,6.84,2.72-6.84a1.31,1.31,0,0,1,1.44-.77,2.42,2.42,0,0,1,.7.1,1.22,1.22,0,0,1,.51.29,1,1,0,0,1,.25.46,1.47,1.47,0,0,1,0,.36v9.25a1,1,0,0,1,0,.28.86.86,0,0,1-.17.38,1.13,1.13,0,0,1-.37.35,1.44,1.44,0,0,1-.64.13,1.34,1.34,0,0,1-.85-.26,1.08,1.08,0,0,1-.4-.9Zm36.65-1.16,0,5.9c0,.1,0,.19,0,.3a1.84,1.84,0,0,1-.17.38,1.16,1.16,0,0,1-.38.35,1.67,1.67,0,0,1-1.29,0,1.12,1.12,0,0,1-.39-.32.87.87,0,0,1-.19-.4c0-.1,0-.21,0-.29v-9.25a1.37,1.37,0,0,1,0-.29.84.84,0,0,1,.23-.47,1.19,1.19,0,0,1,.74-.41c.15,0,.29,0,.44,0a1.26,1.26,0,0,1,.74.19,1.31,1.31,0,0,1,.38.36l4.52,6.48c0-.15,0-.31,0-.46l0-5.42a1.36,1.36,0,0,1,0-.29,1.28,1.28,0,0,1,.16-.38,1.13,1.13,0,0,1,.43-.35,1.43,1.43,0,0,1,.6-.12,1.33,1.33,0,0,1,.63.15.9.9,0,0,1,.38.32,1,1,0,0,1,.18.4,2,2,0,0,1,0,.27v9.29a2.66,2.66,0,0,1,0,.28,1.12,1.12,0,0,1-.2.41,1.14,1.14,0,0,1-.41.34,1.62,1.62,0,0,1-.7.13,1.41,1.41,0,0,1-.77-.18,1,1,0,0,1-.36-.35L227.76,161Zm20.7-4.6a9.09,9.09,0,0,1,1.27.12,4.92,4.92,0,0,1,1.67.6,4.77,4.77,0,0,1,1.49,1.26,5.26,5.26,0,0,1,.8,1.45,6.26,6.26,0,0,1,.32,1.36c0,.34.06.67.06,1a6.4,6.4,0,0,1-.17,1.57,5.65,5.65,0,0,1-.65,1.71,5.39,5.39,0,0,1-1.15,1.38,5,5,0,0,1-1.62.92,5.63,5.63,0,0,1-2,.34,6.52,6.52,0,0,1-2.2-.37,5.08,5.08,0,0,1-3-3,6.6,6.6,0,0,1-.43-2.49,6.44,6.44,0,0,1,.44-2.47,5.27,5.27,0,0,1,1.22-1.86,5.38,5.38,0,0,1,1.8-1.15A6.21,6.21,0,0,1,248.22,156.09Zm21.79,11h0a3.37,3.37,0,0,1-.69.33,5.92,5.92,0,0,1-1,.28,6,6,0,0,1-1.27.12,6.15,6.15,0,0,1-2.29-.41,5.25,5.25,0,0,1-1.79-1.19,5.34,5.34,0,0,1-1.14-1.86,7.09,7.09,0,0,1-.38-2.37,8.46,8.46,0,0,1,.14-1.5,5.48,5.48,0,0,1,.51-1.49,5.79,5.79,0,0,1,.73-1.07,5.2,5.2,0,0,1,1.06-.92,4.77,4.77,0,0,1,1.41-.66,5.74,5.74,0,0,1,1.75-.25,6.12,6.12,0,0,1,2.27.41,4.73,4.73,0,0,1,1.79,1.19,5.08,5.08,0,0,1,1.16,1.86,7.15,7.15,0,0,1,.39,2.43c0,.28,0,.55,0,.83a5.7,5.7,0,0,1-.17.9,5.39,5.39,0,0,1-.56,1.42l-.21.32.71.7a1.67,1.67,0,0,1,.24.32,1,1,0,0,1,.11.47,1.19,1.19,0,0,1-.36.82,1.28,1.28,0,0,1-.85.36.94.94,0,0,1-.53-.15,1.12,1.12,0,0,1-.29-.19Zm13-8.57h-2.19a1.06,1.06,0,0,1-.25,0,.84.84,0,0,1-.41-.16,1,1,0,0,1-.35-.37,1.31,1.31,0,0,1-.12-.58,1.19,1.19,0,0,1,.13-.59,1.14,1.14,0,0,1,.34-.35.8.8,0,0,1,.42-.16,1.05,1.05,0,0,1,.24,0h6.83a1.19,1.19,0,0,1,.55.12,1.31,1.31,0,0,1,.37.33,1,1,0,0,1,.22.69,1.1,1.1,0,0,1-.14.59,1.37,1.37,0,0,1-.33.35.91.91,0,0,1-.43.16,1,1,0,0,1-.24,0h-2.15v8.07a2.66,2.66,0,0,1,0,.28,1.09,1.09,0,0,1-.19.41,1.18,1.18,0,0,1-.41.35,1.35,1.35,0,0,1-.63.13,1.31,1.31,0,0,1-.62-.13,1,1,0,0,1-.43-.37,1.17,1.17,0,0,1-.15-.39,1.49,1.49,0,0,1,0-.28Zm36.58,2.21a10.37,10.37,0,0,1,1,.31,3.87,3.87,0,0,1,1.11.6,3.32,3.32,0,0,1,.88,1,3.63,3.63,0,0,1-.08,3.31,3.39,3.39,0,0,1-1.11,1.12,5.34,5.34,0,0,1-1.45.57,7.47,7.47,0,0,1-1.49.16,7,7,0,0,1-1.7-.22,4.07,4.07,0,0,1-1.55-.72,3.37,3.37,0,0,1-.71-.7,5.65,5.65,0,0,1-.42-.72,3.31,3.31,0,0,1-.22-.65,1.61,1.61,0,0,1-.07-.43,1.1,1.1,0,0,1,.2-.66,1.2,1.2,0,0,1,.41-.36,1.55,1.55,0,0,1,.43-.14,1.48,1.48,0,0,1,.35-.05,1.1,1.1,0,0,1,.87.33,1.11,1.11,0,0,1,.24.47c.08.24.17.48.26.71a1.13,1.13,0,0,0,.47.52,1.62,1.62,0,0,0,.79.32,5.27,5.27,0,0,0,.79.07h.33l.36,0c.14,0,.28-.08.41-.12a.92.92,0,0,0,.31-.16,1.33,1.33,0,0,0,.33-.38,1.08,1.08,0,0,0,.12-.5,1,1,0,0,0-.1-.45,1.75,1.75,0,0,0-.28-.33,2.21,2.21,0,0,0-.65-.33c-.35-.13-.71-.24-1.08-.34l-1.13-.31-.67-.2a5.27,5.27,0,0,1-.62-.24,3.91,3.91,0,0,1-.41-.2,2.51,2.51,0,0,1-.58-.49,2.95,2.95,0,0,1-.68-1.94,3.75,3.75,0,0,1,.26-1.37,2.77,2.77,0,0,1,.82-1.12,3.74,3.74,0,0,1,1.33-.72,5.87,5.87,0,0,1,1.77-.25c.22,0,.43,0,.64,0a4.31,4.31,0,0,1,.79.12,3.58,3.58,0,0,1,1.67.77,3.38,3.38,0,0,1,.5.5,4.8,4.8,0,0,1,.38.54,3.93,3.93,0,0,1,.24.56,1.52,1.52,0,0,1,.11.53,1.1,1.1,0,0,1-.44.9,1.39,1.39,0,0,1-.85.27,1.31,1.31,0,0,1-.43-.08,1.07,1.07,0,0,1-.48-.39c-.06-.09-.11-.19-.17-.29l-.14-.27a2,2,0,0,0-.18-.32,1.14,1.14,0,0,0-.29-.29,1.92,1.92,0,0,0-.53-.28,2.88,2.88,0,0,0-.88-.12,3.82,3.82,0,0,0-.68.07,1.44,1.44,0,0,0-.47.21,1.15,1.15,0,0,0-.32.34.92.92,0,0,0-.1.5.75.75,0,0,0,0,.3,1.14,1.14,0,0,0,.14.16,1.17,1.17,0,0,0,.48.22c.25.09.5.16.76.24Zm14,5.86a1.49,1.49,0,0,1,0,.28,1.77,1.77,0,0,1-.15.38,1.3,1.3,0,0,1-.41.36,1.22,1.22,0,0,1-.65.15,1.31,1.31,0,0,1-.85-.29,1.11,1.11,0,0,1-.38-.88v-9.23a1.43,1.43,0,0,1,0-.29,1.07,1.07,0,0,1,.18-.41.84.84,0,0,1,.4-.34,1.32,1.32,0,0,1,.62-.15,1.44,1.44,0,0,1,.65.15,1.24,1.24,0,0,1,.41.38,1.44,1.44,0,0,1,.15.38,1.27,1.27,0,0,1,0,.28Zm-200-13.46a1.27,1.27,0,1,1,0,2.53,1.27,1.27,0,1,1,0-2.53Zm-4.18,0a1.27,1.27,0,1,1-1.31,1.27A1.3,1.3,0,0,1,129.33,153.12Zm121,0a1.27,1.27,0,1,1-1.32,1.27A1.3,1.3,0,0,1,250.3,153.12Zm-4.17,0a1.27,1.27,0,1,1-1.32,1.27A1.28,1.28,0,0,1,246.13,153.12Z" transform="translate(1735.36 2418.3)"/><g class="cls-52"><rect class="cls-6" x="1333.99" y="1404.42" width="3840" height="5031"/><g class="cls-41"><rect class="cls-6" x="1768.99" y="2556.42" width="315" height="45"/></g></g></svg>